<?xml version="1.0" encoding="utf-8"?>
<!-- Generator: Adobe Illustrator 25.2.2, SVG Export Plug-In . SVG Version: 6.00 Build 0)  -->
<svg version="1.1" id="Layer_1" xmlns="http://www.w3.org/2000/svg" xmlns:xlink="http://www.w3.org/1999/xlink" x="0px" y="0px"
	 viewBox="0 0 28 28" style="enable-background:new 0 0 28 28;" xml:space="preserve">
<style type="text/css">
	.st0{fill:url(#SVGID_1_);}
	.st1{fill:url(#SVGID_2_);}
</style>
<linearGradient id="SVGID_1_" gradientUnits="userSpaceOnUse" x1="19.4331" y1="20.1868" x2="19.4331" y2="8.0808" gradientTransform="matrix(-1 0 0 1 28 0)">
	<stop  offset="0" style="stop-color:#B2BFD8"/>
	<stop  offset="1" style="stop-color:#DEC5E3"/>
</linearGradient>
<path class="st0" d="M8.6,8.1H8.5C8,8.1,7.6,8.5,7.6,9v10.2c0,0.5,0.4,0.9,0.9,0.9h0.1c0.5,0,0.9-0.4,0.9-0.9V9
	C9.6,8.5,9.2,8.1,8.6,8.1z"/>
<linearGradient id="SVGID_2_" gradientUnits="userSpaceOnUse" x1="12.564" y1="20.1868" x2="12.564" y2="8.0808" gradientTransform="matrix(-1 0 0 1 28 0)">
	<stop  offset="0" style="stop-color:#B2BFD8"/>
	<stop  offset="1" style="stop-color:#DEC5E3"/>
</linearGradient>
<path class="st1" d="M18.9,20l-8-5.1c-0.6-0.4-0.6-1.3,0-1.7l8-5.1c0.7-0.4,1.5,0.1,1.5,0.8v10.1C20.4,20,19.6,20.5,18.9,20z"/>
</svg>
