<?xml version="1.0" encoding="utf-8"?>
<!-- Generator: Adobe Illustrator 25.2.1, SVG Export Plug-In . SVG Version: 6.00 Build 0)  -->
<svg version="1.1" id="Layer_1" xmlns="http://www.w3.org/2000/svg" xmlns:xlink="http://www.w3.org/1999/xlink" x="0px" y="0px"
	 viewBox="0 0 1920 366" style="enable-background:new 0 0 1920 366;" xml:space="preserve">
<path d="M1919.9,350.4l-0.1,1.1c0,0-1.5,1.7-2.6,1.7c-1.1-0.1-0.4,1.1-3.3,1.6c-2.9,0.5-0.1,2.3-0.1,2.3l-2.1-1.3l-3.2,0l-0.1,1.8
	l-2.9,0.7l-2.7-2.2l-5.2,3.1c0,0-1.9,1.9-4.7,1.3l-1.6-3.3l-4.2,4.6c0,0-2.1-0.4-1.7-2.4c0.5-2-2.5-0.6-2.5-0.6l-3,1.9l-2.2,0.8
	l-6.4-0.6l-1.8-0.1l-2.6,2.2l-3.6-0.2l0.1-1.2l-2.5,0.1l-2.1-0.1l-2.3,2.6l-2.4-2.9l-0.1,1l-4.3-0.2l-3.7-0.2l-1.9-0.1l-3.2,1.2
	l-2.5,2.1c0,0-2.7,0.7-3.4,0.6c-0.7,0-1.5,0.8-2.4-0.1c-0.9-1-2.4,0.2-2.8-1c-0.4-1.2-1.7-0.1-1.7-0.1s-1.1-1.2-2-2.2
	c-0.9-1-1.2-0.7-1.2-0.7l0.1-1.7l-4.8,0.5l-4.9,3.3c0,0-0.6-2.7-0.5-3.6c0-0.9-2.3,2.4-2.3,2.4s-1.7,0.7-1.9,0.2
	c-0.2-0.5-2.6-0.5-2.6-0.5l-3.4,0.8l-4-0.2l-2.9,1c0,0-3.1,0.4-3.3-1.3c-0.1-1.8-2,0.9-2,0.9l-2.7,1.2l-2.3-1.5l-3.1,0.4
	c0,0-4.9,2.3-6.4-0.1c-1.5-2.4-2.9,0.4-3.1-0.3c-0.2-0.8-2.4,1.1-2.4,1.1l-2.1-0.6l-6,1.3c0,0-2,2-1.4-0.8c0.6-2.9-4.6,0.8-4.6,0.8
	s-1.7,1-2.4,0.8c-0.7-0.2-2.4-0.1-2.8-0.8c-0.4-0.6-3.5-1.3-3.5-1.3l-1.4-1.1c0,0-1.8-1.5-2.3-2.1c-0.4-0.6-4.1,1.3-4.1,1.3
	s-3.6-0.4-4.6-2.5c-1.1-2.1-3.3-0.9-3.3-0.9l-4.3-0.2l-4.2-1.2l-2.5,2.3c0,0-1.1-1-2.5-2.3c-1.4-1.3-2.2,1.2-2.2,1.2l-4-0.8
	c0,0,0,0-0.9-1.6c-0.9-1.6-2.1-0.9-2.1-0.9l-1.8,3.4c0,0-3.9,1.3-4.8,1.2c-1-0.1-3.8-0.4-4.5-0.9c-0.7-0.5-2.5,2.6-2.5,2.6l-3.9,0.7
	l-2-2.4c0,0-2.6,0-3.3-0.3c-0.7-0.3-2.7,0.9-4.3-0.2c-1.6-1.2,0,0-0.7,0c-0.7,0-1.5,0.5-1.5,0.5s-3.6,0.2-4.8-3.7
	c-1.2-4-3.5-0.9-3.5-0.9l-2-2.1c0,0-1.9,0.8-2.7,1.1c-0.7,0.3-2.4,0.5-2.4,0.5s-1.4-1-2-1.9c-0.7-1-3.3-0.3-4.5-1.2
	c-1.1-0.8-4-0.2-4-0.2s-2.2,0.5-2.9-0.2c-0.7-0.6-2.1-0.1-2.1-0.1l-4.6,0.8l-3.3-1.2c0,0-4.5,0.3-6.2-0.4c-1.6-0.7-1.2-0.1-1.2-0.1
	l-4.3,0.8l-1.4-1.1l-3.3-0.2l-4.6,1.4l-1.6-0.6c0,0-2.3-0.9-2.6-1.3c-0.2-0.4-3.8-0.8-4-1.5c-0.2-0.6-2.3-1.2-3.3-1.1
	c-1,0.1-2.1-0.4-2.1-0.4l-1.9-1c0,0-5.5-0.3-6.9-0.9c-1.4-0.5,0.1-2.3,0.1-2.3l-3.8-0.2c0,0-2.9,0.6-4.3-0.2
	c-1.4-0.8,0.3-1.4,0.3-1.4s-5.2-0.6-7.4-0.7c-2.1-0.1-3.1,0.3-3.1,0.3s-0.4-0.8-1.3-2.8c-0.8-2-2.1-0.1-2.1-0.1s-8.4,1.2-10.5,1.1
	c-2.1-0.1-2.2,0.2-3.5-0.8c-1.4-1-2.9,0.4-2.9,0.4s-5.8,1.5-7.2,1.6c-1.4,0.1-1.5,1.1-2.4,0.6c-0.9-0.5-4.2-2.5-4.2-2.5l-5.4,2.4
	l-2.8-1.5l-1.9,0.6l-2.1-1.2c0,0-6.8,1.7-9.4,1.7c-2.6,0-1.3,1.6-1.3,1.6s-2-1.9-2.3-2.4c-0.2-0.5-1.9,0.8-1.9,0.8l-2.9,0.1
	c0,0-1.4-0.1-1.9-0.9c-0.4-0.8-2.9,0.1-2.9,0.1s-1.6,2.5-1.6,3c0,0.5-2.6-0.9-2.6-0.9l-3.1,0.7c0,0-2.4,0.8-2.4,0.3
	c0-0.5-1.1-1.1-2.3-2.4c-1.1-1.3,0,0-0.7-0.2c-0.7-0.2-1.2-0.1-1.2-0.1s-1.1-2.2-0.6-2.8c0.5-0.6-3.4,0.4-3.4,0.4s-0.7-0.8-1.3-2.2
	c-0.6-1.4-1.6-0.4-1.6-0.4s0-0.6,0.1-1.5c0-0.9-2.1-1.2-2.1-1.2l-1.2,0.5l-1.4,3.6c0,0-1,1.8-1.3,1.1c-0.2-0.6-3.3,0.1-3.3,0.1
	l-1.3,2.5c0,0-2.4-0.6-2.8-1.2c-0.4-0.6-3.9,0.7-3.9,0.7l-3,2l-2.4-0.1c0,0-0.9-1-2-2.3c-1.1-1.3,0,0,0.1-2.3s-5-1-5-1l-2-3.2
	l-4.3,1l-3.5-0.8c0,0-1.1-2-1.1-2.6c0-0.6-2.2,0.8-2.2,0.8l-2.8-1.1c0,0-1.4-1.4-1.5-2.8c-0.2-1.4-2.9,0.4-2.9,0.4l-3.8-0.4
	l-1.8-2.1l-3.1-0.6l-1.6-1c0,0-3.3-1.1-4.2-1.8c-0.9-0.7-1.8,1.6-1.8,1.6l-5.5-0.5l-2.1-1.2l-3.4,0.9l-2.6,0.3l-4.4-1.9l-4.4,1.7
	l-2.5-1.5l-1.2-0.7c0,0-1.9-1-3.5-2c-1.6-1-3.4,1.6-3.4,1.6l-2.5,1.8c0,0-2.3,2.2-2.8,2.6c-0.5,0.4-0.1,1.7-0.1,2.4
	c0,0.8-3.7,1.5-5.1,0.9c-1.4-0.5-0.1,1.4-0.1,1.4l-5.3,1.2c0,0-1.9,0.3-3-1.4c-1.1-1.7,0.1-1.5,0.1-1.5l-3.3-0.6l-5.2-1.5l-3.4,1.9
	l-4.6,1.6c0,0-0.5-0.8,0.1-1.8c0.5-1-4.3,0.5-4.3,0.5l-3.9,1.1l-3.6,0.4c0,0-3.7-1.6-4.4-1.8c-0.7-0.2-3.2,1.2-3.2,1.2
	s-3.8,0.4-5,0.3c-1.2-0.1-1.9-1-1.9-1l-2.9,0.6l-2,1.4c0,0-1.8-1.5-2-2.1c-0.2-0.6-2.4,0.3-2.4,0.3l-3.9,2.1l-1.3-2.2l-1.7,1.3
	l-2.6-0.5c0,0-1.2-0.7-2.6-0.9c-1.4-0.2-1.2,0.8-1.2,0.8s1.6,2.2,2.2,2.6s-7.9,1.3-7.9,1.3l1.7-0.6c0,0,0,0-0.7-0.3
	c-0.7-0.3-3.1,0-3.1-0.6c0-0.6-1.9,0.2-1.9,0.2l-2.3,2l-1.8,2c0,0-1.1-1.2-2.3-2c-1.1-0.8-4.1,1.7-4.1,1.7s-2.7,1-3.6-0.2
	c-0.9-1.2-1.5,1.2-1.5,1.2l-2.7,0.8c0,0-2.1-1.2-2.6-1.2c-0.5,0-0.1,1.8-0.1,1.8s-0.9,0.3-2.2,0.7c-2.8,0.8-7.4,2.1-9.4,2.2
	c0,0-3.7-1.6-4.6-2.6c-0.9-1,0,0-0.9-1.3c-0.9-1.3-1.4-0.2-1.4-0.2l-3.7,2.2l-0.1,2l-2.5-2.3l-3.5,2.8l-3.1-1l-1.5-2l-1.5,1.5
	l-2.7,1.1c0,0-1.8,0.8-2.4,0.7c-0.5-0.1-2.2,0.7-2.2,0.7l-2.9,1.3c0,0-1.1,3.6-1.1,3.1c0-0.5-0.9-0.4-0.9-0.4l-7.3,3.5
	c0,0,2.4-3.1,2.3-3.9c-0.1-0.8-4.6-0.3-4.6-0.3l1.2-1.6c0,0-4,1.4-5.9-0.3c-1.9-1.7-1.2-0.9-1.2-0.9l-2.3-1l-2.5,0.8
	c0,0-1.5-2.3-2.2-2.6c-0.7-0.4-2.7,0.1-2.7,0.1s-1-0.5-1.9-1.5c-0.8-1-3.1,0.3-3.3,0.6c-0.2,0.3-1.2-0.1-1.2-0.1s0.2-1,0.1-2.2
	c-0.1-1.1-2.1,0-3-0.2c-0.9-0.2-1.3,0.4-1.4-0.1c-0.2-0.5-2.5-0.1-3.2-0.2c-0.7,0-2.3,0.2-2.3,0.2l-4.5,1.3c0,0-1.4,0.3-2.2,0.3
	c-0.7,0.1-0.4,0.4-1.5,0.8c-1.1,0.4-2-0.1-2-0.1s-1.9-0.8-2.4-1.3c-0.5-0.5-0.3-0.8,0-1.6c0.4-0.8-2.2,0.2-3.4-0.8
	c-1.2-1,0-0.7,0-0.7s-0.8-1.4-1.1-2c-0.3-0.6-1.3,1.2-1.3,1.2l-2.6,0.9l-2.6,1.7c0,0-3.5,1.2-3.8,0.2c-0.3-0.9-1-1.5-1-1.5l-2.6,2.7
	l-0.8-1.2c0,0-1.8,0.1-1.8-0.7c0-0.8-0.5-0.7-1-1.5c-0.5-0.8,0,0-1.2-0.9c-1.2-0.9-1.8,0.1-2-0.2c-0.2-0.4-1.2-0.3-1.7-1.8
	c-0.5-1.5,0,0-0.6-1.3c-0.6-1.3-1.2,1.6-1.1,1.3c0-0.3-1.4-1-1.4-1s-1.3,1.5-1.3,1.1c0-0.5-1.4-0.1-1.4-0.1s-3.4-2.6-4.2-2.6
	c-0.7,0-0.1,1.4-0.1,1.4s-4,0.6-5.2-0.5c-1.2-1.1,0,0-0.5-0.6c-0.5-0.6-1.1-0.3-2.1-1s-5.5-0.8-5.5-0.8s0,0-0.8-1.2
	c-0.8-1.2-1.3,0.8-1.3,0.8l-0.8-1l-1.3-2.7c0,0-1-0.7-1.4-1.1c-0.3-0.4-2.3,0.3-3.8,0c-1.4-0.3-0.9-0.1-0.9-0.1l-1.2-0.3l-0.2,3.6
	c0,0-2.4-2.6-2.8-3.7c-0.5-1.1-2.7,0.1-2.7,0.1s-1.3,0.2-1.8,0.2s1.7,2.3,1.7,2.3l-4.5,0.5l-2.7-3.5l-1.9,1.4l-0.9,0.7l-3.1-2.5
	c0,0-2.5,0.3-2.8-0.5c-0.3-0.8-1.5,0.6-1.5,0.6s-2.4,1.6-2.5,0.8c-0.1-0.8-2.1-1-3-1.3c-0.9-0.3-1,1.8-1.3,1.4
	c-0.3-0.4-1.8-0.7-2.8-1.3c-1-0.6-2.6,1.2-2.7,0.9c-0.2-0.4,0-0.9,0.1-2.2c0.1-1.3-1.7-1.5-1.7-1.5l-1.6,0.7c0,0-3.7,1.4-4.3,0.2
	c-0.7-1.2-0.9-0.2-0.9-0.2l-1.4,2.3c0,0-1.8,0.1-2-0.2c-0.2-0.4-1.7-0.9-2.4-2c-0.7-1.1-1.6-0.5-1.6-0.5l-3.1,0.7l-0.1,1.7l-3.4-3.7
	c0,0-0.5,1.8-1.3,1c-0.8-0.8-1.8-0.1-3.2-1c-1.4-0.9-1.9-1.1-1.9-1.1l2.1-2l-4.2-1.4c0,0,0,0-0.5-0.6c-0.5-0.6-4.5,0.4-4.5,0.4
	l-2.2,0.4l-1.9,2.5c0,0-1.1,0.8-1.8-0.1c-0.7-0.9-3.4-2.8-4.1-3c-0.7-0.3-3,1.8-3,1.8s0,0-1.2-1.9c-1.2-1.9-4.9,0.9-5.4,0.3
	c-0.5-0.6-1.2-0.8-2-1.9c-0.8-1.2-0.9-0.3-0.9-0.3l-0.1,2c0,0-2.2,0.2-3.2-1.2c-1-1.4-2.1-0.1-2.1-0.1l-3.6-0.2l-2.1-1.6l-2.8,1.7
	l-2.2,1.2l-0.9-2.5l-1.7,1.2l-4,0.3l-2.2-1.7l-3-0.4l0.1-1l-1.5-2.1l-4.2,1.4l-4.1-1.1l-3.5-1.3l-2.2,0.8c0,0-1.9,2.1-2.3,2.4
	c-0.4,0.3-1.1-0.1-1.9-1c-0.8-1-4.2,1-4.2,1l-5-0.2l-1.1,0.8l-2.9-2.2l-1.1,1.8c0,0-2.7,0.6-4,0c-1.2-0.6-2.6-0.7-2.6-0.7
	s-1.9-0.3-2.1-0.7c-0.2-0.4-2.1-1.5-2.1-1.5l-3.7,1.8l-0.8-2l-5.7,0c0,0-0.5-1.4-0.6-2c-0.1-0.6-2.3-0.4-2.3-0.4l-0.9-0.3l-2.5-2.8
	l-1.8,0.2l-1.4,2.5l-3.8,0.8l-2.8-1.6l-1.9,1.9l-2.4,1.5c0,0,0,2.6-0.2,3c-0.2,0.3-3.4-0.5-3.4-0.5s0.4-0.8,0.1-1.7
	s-3.8,1.4-3.8,1.4s-3.1,0.5-4.3-0.1l-2.4,1.5l-2.8,0.6l-1.5-0.1l-2-0.8l0.1-1.5l-1-1.3l-2.5-0.1l-1-1.5l-4.1,1.4l-1.3-0.2l-0.9-1.6
	l-2.8-3.3l-1,3.4l-0.5-1.4c0,0-0.9-0.7-1.1-1.1c-0.2-0.4-1.3,1.6-2.3,0.6c-1-1-2.3,0.1-2.3,0.1l-0.7,1.9l-3.2-0.1
	c0,0-1.4-1.1-1.4-1.3c0-0.2-1.5,0.7-1.5,0.7l-3.3,1.2l-2,0.4c0,0-0.4,0-1.1-0.8c-0.8-0.8,0-0.7,0-0.7s-3.7-1.4-4.1-1.5
	c-0.4-0.1-1.4,1.1-1.4,1.1s-1-1-1.5-1.5c-0.5-0.4-0.1,1.3-0.1,1.3l-5-0.1l-0.1,2.4l-1.5,1.1c0,0-0.9-0.7-1.2-2
	c-0.3-1.4-2.1,1.2-2.1,1.2s-1.5,1.2-1.6,0.9c-0.1-0.3-2.9,0.8-3.3,0.7c-0.4-0.1-1.9,0.7-1.9,0.7s-2,0.3-2.4-0.3c-0.3-0.6-2,0-2,0
	s-0.9,1.7-1.2,0.9c-0.3-0.8-0.8-0.4-0.8-0.4l-1.5-0.7l-5,1.4c0,0-3.5,0.4-4.9-0.2c-1.4-0.6-1.2-0.6-1.2-0.6l-3.9-1.3
	c0,0-1.3-0.2-2.1-1c-0.8-0.9-1.5-0.2-2.4-1.1c-0.9-0.8-1.3,0.1-1.3,0.1s-1.7,0.7-1.9,0.3c-0.2-0.4-2.6-1-3.4-1.3
	c-0.8-0.3-1.8,0.8-1.8,0.8s-3.3-0.9-3.6-1c-0.3-0.2-1.5-0.8-1.5-0.8s-3.1,0-3.6,0c-0.5,0-1.4-0.1-2-0.5c-0.6-0.4-1.5-0.5-2-0.8
	c-0.5-0.3-3.1,0.9-3.1,0.9l-2.5,0.5c0,0-3.1-0.8-3.4-1s-0.7-0.6-0.7-0.6l-1.2-0.5l-2.3,0.3c0,0-2.1-1.2-2.4-1.6
	c-0.3-0.4-2-0.4-2-0.4l-2,0.2c0,0-1.7-1.7-2.1-1.8c-0.4-0.1-2.2,1.2-2.2,1.2l-0.8-0.1l-1-1.2l-3.4,0.6l-1-1c0,0-1.8,0.2-1.9-0.1
	c-0.1-0.3-1.6-0.6-1.6-0.6l-1.6,1l-3.4-1.2l-2.4,0.3c0,0-1.5-0.7-2.8-1.6c-1.3-0.9-2,1.4-2,1.4l-0.5-0.5l-3.2-1.4l-1.2,1.2l-0.1,2
	c0,0-2.2-0.7-2.8-0.9c-0.6-0.2-0.8,1.2-0.8,1.2s-0.5,1.4-1.4-0.8c-0.9-2.2-2.1,0-2.1,0l0.5,1.6l-3.4,1.8l-2.6,1.4l-3.7,2.1
	c0,0-1.1,1.3-2.1-0.1c-1-1.4-3.2-0.2-3.2-0.2l-1.5,1.5c0,0-9.4,1.1-11.1-0.2c0,0-6.1,0.1-7.5,0c-1.4-0.1-5,0.4-5,0.4l-1.7-1
	l-3.2-0.2l-1.9,2.4l-2.1-0.8l-3.2-0.2c0,0-1.4-0.3,0.1-1.8l-6.7-1.3l-2.6,1.4l-5.1,1.1c0,0-2.9,0.5-4,0.7c-1.1,0.2-4.3,0.2-5.4-0.1
	s-3.1-2.2-3.1-2.2l-0.1,2l-3.1-1.6l-5-0.1l-2.2,1c0,0,0,0-2-2.6c-2-2.6-2.5,0.3-2.5,0.3l-2.2,0.3l-1.8-0.1c0,0,0,0-0.3-0.9
	c-0.3-0.9-3.9,0.2-3.9,0.2l-2.9,1.2l-9-5.3l-3,2.6l-2.5-0.1l-4.2-1.8l-3.6,0.9l-2.4-1.1l-2.5,0.8l-2.8-1.3l-3.2,0.5l-4.5-2.1l-5-0.3
	c0,0-3.5-1.8-4.2-2.5c-0.7-0.7-2.2,0.3-2.2,0.3s-2.5-0.8-2.4-2c0.1-1.1-2.9,0.7-2.9,0.7l-8.4-2.8l-0.9-0.2c0,0-5.3-0.8-6-1.1
	c-0.7-0.3-1.4-0.5-1.4-0.5s0,0-0.7-0.7c-0.7-0.7-3-1.1-3-1.1l-2.1-0.4c0,0-2.4-1.3-2.1-1.7c0.4-0.4-0.1,1.7-0.1,1.7l-7.4,0.6
	l-1.5-1.5l-1.9,2.3l-1.8,0.9l0,0.9c0,0-3.1,0.4-3.2-0.2c-0.1-0.6-1.4,0.1-1.4,0.1l-1.5,0.8l-4.9-1.7l-0.1,1l-1.3,1.2
	c0,0-1.7-1.4-2.2-1.6c-0.5-0.3-1.6,0.6-1.6,0.6l-3-0.7c0,0-2,0.5-3.4,0.9c0,0-2.6-2-2.9-2.6c-0.3-0.6-1,1.7-1,1.7l-4.9,0.7l0-0.8
	c0,0-2,0.8-2.5,0.4c-0.5-0.4,0-0.5,0.1-1.5c0.1-1-1.6-0.5-1.6-0.5l-0.1,1.4c0,0-4.2-0.9-4.9-1.3c-0.7-0.4-1.8-0.2-1.8-0.2l-1-1.7
	l-2.6,1.2l-2.3-1l-1-1l-2.2-1.6c0,0-3.2-0.5-3.7-1c-0.5-0.5-2.7,0.2-2.7,0.2s-1.7-1-2.4-1.5c-0.7-0.5-3.4,0.5-3.7-0.3
	c-0.3-0.8-1.2-0.5-1.2-0.5l-2.2-1.6l-3.4,0.4l-1.5,0.8c0,0-3.6,0.9-4.2,0.9c-0.5,0-1.8-0.4-2.3-0.9c-0.5-0.5-2.2-1.7-2.2-1.7
	l-2.8,2.2l-5.2-0.1l0.1-1.3l-3.7-0.8l-2.9,0.2l-1.4-0.7c0,0-1.4-1.3-1.3-1.7c0-0.3-4.2,0.8-4.2,0.8l-1.1-0.2c0,0-1.7-1.1-1.9-1.9
	c-0.1-0.8-1.8,0.6-2.9,0.6c-1.1,0.1,0,0.9,0,0.9s-6.2,1.4-7.6,1.4c-1.4,0-1.1,0.4-1.1,0.4l-2.5,0.8l-0.1,1.6c0,0-1.1-3.4-1.6-3.7
	c-0.5-0.4-1.8,1.1-1.8,1.1l-2.2-1c0,0-1.9-0.4-3.5-1.6c-1.6-1.2-1.2-0.7-1.2-0.7l-3.1,0.7l-2.9,0.6c0,0,0,0-0.6-1.6
	c-0.6-1.6-1.6-0.4-1.9-0.9c-0.2-0.5-4.1,1.4-5.8,0.9c-1.6-0.6,0-0.9,0-0.9s-7.6-0.1-9.3-0.4c-1.7-0.2,0,0-0.4-1.4l-8.4,1.3l-2.4,1.2
	c0,0,0-0.8,0.1-2.6c0.1-1.8-2.9,0.7-2.9,0.7l-3.9,1.9c0,0-5.7,0-6.6-1l-2.8-0.8l-1.8-2.7c0,0,0,0-0.5-0.5c-0.5-0.5-3.3-0.6-4.2-2.4
	c-0.9-1.7-1.6-1.5-2.3-2.1c-0.7-0.6-4.7-0.6-4.7-0.6s0,0-1.3-2.2c-1.3-2.2,0-0.9,0-0.9l-6.7,0.7l-0.1,1.4l-5.7,0.4l-1.2,0.7
	l-3.5-0.9l-1.5,1.1l-0.1,1.4l-4.7-1.5l-4.6,1.1l-4.3-0.1c0,0-3.5-2.2-3.9-3c-0.4-0.8-3.4,1.8-4.4,1.9c-1,0.1-2.4,0.3-2.4,0.3
	s-1.9-0.7-2-2.1c-0.2-1.4-4.8-0.3-6.7-0.4c-1.9-0.1-0.2,3.9-0.2,3.9l-2.5,1.5c0,0-8.1-0.3-9.5-0.7c-1.4-0.4,0,0,0.5-1.2
	c0.5-1.2-7.5,1.2-7.5,1.2l-1.2,1l-5.4-1.8l-5.5,0.4l-5.2-0.3l-2-2.1l-7,2.3l-1.5,0.8l-6.6-1l0.1-1.7l-7.8,3.7l-3.3-0.2l-5,0.6
	l-5-0.3l-12.3,2.9c0,0-6.4-0.4-11.4-0.7l-15.9,3.6l-0.1,1.8l-11.9-4.1l0.2-3l-7.8-0.5l-7.1-0.4c0,0-4.3,0.7-9.3-0.5l-5-0.3l-5.9,2.6
	l-6.6,2.6l-4.4,1.7l-18.5-2.6l0.9-3.4l-8,3l-6,6l-6.4-0.4l-14.1-4L53,268.2l-3.6-0.2l-7.1-0.4l-5.2,2.9l-9.6-6.9l-0.2,4.1L-0.1,268
	l0-268l1920,0L1919.9,350.4z"/>
</svg>
