<?xml version="1.0" encoding="utf-8"?>
<!-- Generator: Adobe Illustrator 25.2.1, SVG Export Plug-In . SVG Version: 6.00 Build 0)  -->
<svg version="1.1" id="Layer_1" xmlns="http://www.w3.org/2000/svg" xmlns:xlink="http://www.w3.org/1999/xlink" x="0px" y="0px"
	 viewBox="0 0 1920 425" style="enable-background:new 0 0 1920 425;" xml:space="preserve">
<style type="text/css">
	.st0{fill:#6C7FBF;}
</style>
<path class="st0" d="M0,354.5l32.3,15.4l17.3,5.1l13.1-1.6l7.5,1.6l1.7,2.3c0,0,5.9,1.9,5.9,2.6c0,0.7,0,1.9,0,1.9l9.5,1.3
	c0,0,1.7,0.6,2.8,1.5c1.1,0.9,7.8,2.3,7.8,2.3l12.5,1.6l28.4,12.9l11.2,2.6c0,0,16.2,3.2,16.7,4.9c0.6,1.7,6.1,4.4,6.1,4.4l11.7,4.4
	c0,0,4.5,0.3,6.1,0c1.7-0.3,9.5-1.7,9.5-1.7l5.6,1.9h8.9h6.7c0,0,7.8,2.8,9.5,3.6c1.7,0.9,5.6,2.9,5.6,2.9l13.4,0.6l12.3-2.3
	l17.8-3.8c0,0,2.2-2.9,3.9-2.9c1.7,0,6.7,1.7,6.7,1.7l7.8,2.3c0,0,5.6-2.3,7.2-2.6c1.7-0.3,13.4-2,13.4-2l17.8,2.3l6.7-2.6l9.5-4.1
	l10,2.6l16.2,1.5l-7.8,1.7h12.8l8.9-2c0,0,10-1.5,12.3-1.5s10,0,10,0l5.6-2.9l4.5-4.1c0,0,2.2-0.3,3.9,1.2c1.7,1.5,4.5,2.3,4.5,2.3
	l6.1-1.2l8.9-1.2l4.5,1.7h2.8c0,0,10,1.2,11.7,0c1.7-1.2,1.7-2.6,3.9-2.9c2.2-0.3,8.9-2,8.9-2l3.3,0.9c0,0,6.1,0,7.8-0.9
	c1.7-0.9,5-4.9,6.7-5.2c1.7-0.3,6.1-0.9,6.1-0.9h4.5l7.2-2.9l17.8-2l12.8-3.6l13.9-3.1c0,0,5,3.1,8.4,3.1c3.3,0.1,11.2,0,11.2,0h7.2
	l6.1,1.8H605l11.7-1.8h3.9h5.6l2.8-6.6h15.1h7.8l4.5-2.6l6.1-2l3.3-0.3l7.2-2.3l10.6-3.8l17.3-4.9c0,0,3.3-4.4,5-4.4
	s8.4,0.6,8.4,0.6s1.7-3.2,3.3-2.6c1.7,0.6,7.8,2.6,7.8,2.6l7.8,1.5l4.5-1.2c0,0,2.2-2.3,6.1-1.7c3.9,0.6,6.7,0.9,6.7,0.9l3.9-1.5
	l8.4-1.5l7.2,0.9l5-0.6l6.1-0.3l7.8,1.5l3.9-2.3c0,0,5-2.9,6.7-2.9c1.7,0,7.2-1.6,7.2-1.6l5.6-2.2c0,0,0.6,2,2.8,2
	c2.2,0,10-0.3,12.3-0.3c2.2,0,15.1-1.7,15.1-1.7l4.5,2.3l7.2,0.6c0,0,3.9,0.3,5.6,0.9c1.7,0.6,7.8,1.5,9.5,1.5s12.8-1.2,12.8-1.2
	l45.7,0.6c0,0,2.2-1.7,4.5-1.5c2.2,0.3,4.5,1.5,4.5,1.5l5.6-0.6l4.5-2.9l21.2,2.9l4.5-2c0,0,0.6-1.7,2.2-2c1.7-0.3,7.8-2.6,7.8-2.6
	c4.5,0,10.6,0,10.6,0h11.2h3.3l7.8,2l9.5,1.2l5.6-0.9l3.9-2.3l10,1.5l6.1-1.5h3.9c0,0-3.9-3.2,0-3.2s7.2,0,7.2,0l4.5-1.5l6.1,1.2
	l10,0.6l6.7-1.7l10.6-2l4.5,1.2l2.8-3.5l5.6-1.7l6.1,1.7l3.9,1.2l5.6-0.3l6.1-5.2l12.8,1.2c0,0,3.9-0.3,6.1,0
	c2.2,0.3,7.2-1.2,7.2-1.2l5.6-2h17.8h8.4l6.1-2l7.8,2.3h4.5l10.6-0.6l4.5-1.7l10-1.3l6.7-5.1h6.7l18.1-4.7l12.8-3.2l2.8,1.5l6.7,1.6
	l6.7-1.5c0,0,3.1-2.3,4.5-1.6c1.4,0.7,1.7,0.7,3.1,0.7c1.4,0,8.9-0.9,8.9-0.9l3.9-1.7l8.4,1.2c0,0,1.1,1.3,2.2,1.7
	c1.1,0.4,5.3,1.3,5.3,1.3l11.4,0.7l5,0.6l5,0.6l9.2-1.5l2.2,0.9l6.7,1.2l8.4-1.2l3.1,0.1l5.3,1.9c0,0,7.2-0.1,7.5,0.4
	c0.3,0.6,6.4-2.5,6.4-2.5l5.6,1.7c0,0,2,0.6,2.2,1c0.3,0.4,2.8,1.6,2.8,1.6l8.1-0.6c0,0,2.2,0.3,3.1,0.3c0.8,0,21.5,0.4,21.5,0.4
	v-2.5l2.8,2l6.4,0.1c0,0,1.4-0.3,2.5-0.3s11.7-0.3,11.7-0.3s2.8-0.6,3.6-0.6c0.8,0,6.4-1.9,6.4-1.9l5.6-1.5c0,0,4.2,0.3,5,0
	c0.8-0.3,8.6-1.7,8.6-1.7l2.8-0.1v-1.7c0,0,2-0.4,3.1-0.4s7-0.4,7.5,0.3c0.6,0.7-2-0.4,0.6,0.7c2.5,1.2,5.9,1.5,5.9,1.5l4.5-1.2
	l4.5-1.2c0,0,4.7-0.1,5.9-0.1s2.2-1.9,2.2-1.9s2,0,3.1,0s7.8,2.6,7.8,2.6l0.8,2.2l6.7,1.2c0,0,3.3,0,5.6-0.1
	c2.2-0.1,13.7-1.5,14.5-1.5c0.8,0,2.2,1.3,2.2,1.3l5.9,0.6h7.2c0,0,5.3-1.5,7.2-0.7c2,0.7,3.9,1.3,3.9,1.3l5-1.5
	c0,0-0.3-0.7,2.5-0.3c2.8,0.4,7,0.4,7.5,1.2c0.6,0.7,3.1,1,4.5,1c1.4,0,2-1,3.1-0.9c1.1,0.1,6.1,1.3,6.1,1.3l6.7-1.2l4.7-1.2
	l6.4-2.2l4.7,1.7c0,0-1.4,0,2.5,0.3c3.9,0.3,7,0.4,7,0.4l7,2.9l8.6,0.7l23.4,2.3c0,0,4.2,2.4,7.1,2.8c2.9,0.4,8.4,2,11.3,1.1
	c2.9-0.9,16.3-2.4,16.3-2.4l8.4-1.5v-2l4.2-2.2l4.2-2l4.6,2.2l3.8,1.1c0,0,2.9,1.3,5,1.7c2.1,0.4,7.1,0.2,7.1,0.2s5.4-1.5,8.4,0
	c2.9,1.5,6.3,2.6,7.5,2.6c1.3,0,6.3-0.2,8.4-0.2s8.8-0.7,8.8-0.7l3.8-1.3c0,0,2.5-1.7,4.2-1.7s8.8-0.7,9.6,0.2
	c0.8,0.9,3.8,3.1,3.8,3.1s5.9,1.1,9.2,1.5c3.3,0.4,4.2-0.6,5,1.3c0.8,1.9,3.3,3,4.6,3c1.3,0,6.7,0,6.7,0l9.6,0.2l7.1-0.1l3.6-2.2
	c0,0-0.6-2.4,1.9-2.5c2.5-0.1,16.5-0.8,16.5-0.8h1.5l4-2.6c0,0-1-1.5,0-1.5s5.9-0.7,5.9-0.7l1.7-1.6c0,0,5.6-0.8,6.9-0.5
	c1.3,0.2,2.3,0.5,3.3,0.7c1,0.1,6.1,0.1,6.1,0.1V0c0,0-1.4,1.8-2.4,1.8c-1.1,0-0.3,1.1-3.1,1.8c-2.8,0.7,0.1,2.1,0.1,2.1l-2.2-1
	l-3.2,0.3l0.1,1.7l-2.8,0.9l-2.9-1.8l-4.9,3.4c0,0-1.5,6.1-4.4,5.8l-1.9-2.9l-3.8,4.6c0,0-2.1-0.1-1.9-2.1c0.3-1.9-2.5-0.3-2.5-0.3
	l-2.8,2l-2.1,0.9l-6.4,0l-1.8,0.1l-2.4,2.3l-3.6,0.1l0-1.2l-2.3-4.2l-2.1,0.1l-2,2.6l-2.6-2.5l0,0.9l-4.3,0.1l-3.7,0.1l-1.9,0.1
	l-3,1.4l-2.3,2.1c0,0-2.6,0.9-3.3,0.9c-0.7,0-1.4,0.9-2.4,0.1c-1-0.8-2.4,0.4-2.9-0.7c-0.5-1.1-1.7,0.1-1.7,0.1s-1.2-1-2.2-1.8
	c-1-0.8-1.2-0.5-1.2-0.5l-0.1-1.6l-4.7,0.9l-4.6,3.5c0,0-0.8-2.5-0.8-3.3c0-0.8-2,2.5-2,2.5s-1.6,0.8-1.9,0.3
	c-0.3-0.4-2.6-0.2-2.6-0.2l-3.3,1l-4,0.1l-3,5.6c0,0-3.1,0.7-3.4-1c-0.3-1.6-1.9,1-1.9,1l-2.6,1.4l-2.4-1.2l-3.1,0.7
	c0,0-3.5-2.3-5.2-4.3c-1.7-2.1-2.8,0.7-3.1,0c-0.3-0.7-2.3,1.2-2.3,1.2l-2.2-0.4l-5.9,1.8c0,0-1.8,2.1-1.5-0.7
	c0.4-2.7-4.5,1.1-4.5,1.1s-1.6,1-2.3,0.9c-0.7-0.1-2.4,0.1-2.9-0.5c-0.5-0.6-3.6-0.9-3.6-0.9l-1.5-0.9c0,0-1.9-1.2-2.4-1.8
	c-0.5-0.6-4,1.6-4,1.6s-3.6,0-4.8-1.9c-1.3-1.9-3.4-0.5-3.4-0.5l-4.3,0.1l-5.5,4.1l-1.1-2.5c0,0-2.4,4-3.9,2.9
	c-1.5-1.1-2.1,1.3-2.1,1.3l-4.1-0.4c0,0,0,0-1-1.4s-2.2-0.6-2.2-0.6l-1.5,3.3c0,0-3.7,1.5-4.7,1.6c-1,0-3.8,0-4.5-0.4
	c-0.7-0.4-2.3,2.6-2.3,2.6l-3.8,1l-2.2-2.1c0,0-2.6,0.2-3.3,0c-0.7-0.3-3.3-5.1-5-6c-1.7-0.9,0,0-0.7,0c-0.7,0-1.4,0.6-1.4,0.6
	s-3.5,0.5-5.1-3c-1.6-3.6-3.6-0.5-3.6-0.5l-2.2-1.8c0,0-1.9,0.9-2.6,1.2c-0.7,0.3-2.4,0.6-2.4,0.6s-1.5-0.8-2.2-1.6
	c-0.7-0.8-3.3,0-4.5-0.7c-1.2-0.7-4,0.1-4,0.1s-2.1,0.6-2.9,0.1c-0.7-0.5-2.1,0.1-2.1,0.1l-4.5,1.1l-3.4-0.9c0,0-4.5,0.7-6.2,0.2
	c-1.7-0.5-1.2,0-1.2,0l-4.2,1.1l-0.7,5.2l-3.3,0.1l-4.5,1.7l-1.7-0.4c0,0-2.4-0.6-2.7-1s-3.8-0.5-4.1-1s-2.4-0.9-3.4-0.7
	c-0.9,0.2-2.1-0.2-2.1-0.2l-1.9-0.8c0,0-5.5,0.2-6.9-0.2c-1.4-0.4-0.1-2.1-0.1-2.1l-3.8,0.1c0,0-2.8,0.8-4.3,0.1
	c-1.5-0.7,0.2-1.3,0.2-1.3s-5.2-0.1-7.4,0c-2.1,0.1-3.1-4.6-3.1-4.6s-0.5-0.7-1.5-2.5c-1-1.8-2.1,0.1-2.1,0.1s-8.3,1.8-10.4,1.9
	c-2.1,0.1-2.1,0.4-3.6-0.5c-1.5-0.8-2.8,0.7-2.8,0.7s-5.6,1.9-7.1,2.1c-1.4,0.2-1.4,1.2-2.3,0.8c-1-0.4-4.3,3.1-4.3,3.1l-5.1,2.7
	l-2.9-1.2l-1.9,0.8l-2.2-0.9c0,0-6.6,2.2-9.2,2.4c-2.6,0.2-1.1,1.6-1.1,1.6s-2.2-1.6-2.5-2.1c-0.3-0.4-1.9,0.9-1.9,0.9l-2.8,0.4
	c0,0-1.4,0-1.9-0.6c-0.5-0.7-2.8,0.4-2.8,0.4s-1.3,2.5-1.3,2.9c0,0.4-2.6-0.6-2.6-0.6l-3.1,1c0,0-2.3,0.9-2.4,0.5
	c0-0.4-1.2-1-2.5-2.1c-1.2-1.1,0,0-0.7-0.1c-0.7-0.1-1.2,0-1.2,0s-1.3-2-0.8-2.5c0.5-0.6-3.3,0.7-3.3,0.7s-0.7-0.7-1.5-1.9
	c-0.8-1.3-1.7-0.2-1.7-0.2s0-0.6-0.1-1.4c0-0.9-2.2-0.9-2.2-0.9l-1.2,0.6l-1.1,3.4c0,0-0.9,1.7-1.1,1.2c-0.3-0.6-3.3,0.4-3.3,0.4
	l-1.1,2.5c0,0-2.4-0.3-2.9-0.9c-0.5-0.6-3.8,1-3.8,1l-2.8,2.1l-2.4,0.1c0,0-1-0.8-2.2-1.9c-1.2-1.1,0,0-0.1-2.1
	c-0.1-2.1-5-0.5-5-0.5l-2.2-2.8l-4.2,1.3l-3.6-0.5c0,0-1.3-1.8-1.3-2.4c0-0.6-2.1,0.9-2.1,0.9l-2.9-0.8c0,0-1.5-1.2-1.8-2.5
	c-0.3-1.3-2.8,0.7-2.8,0.7l-1.2,4.5l-2-1.8l-3.1-0.3l-1.7-0.8c0,0-3.4-0.7-4.3-1.3c-1-0.5-1.6,1.6-1.6,1.6l-5.5,0l-2.2-0.9l-3.3,1.1
	l-2.6,0.5l-4.6-1.4l-4.2,2l-2.7-1.2l-1.2-0.5c0,0-4.5-5.3-6.2-6.1c-1.7-0.8-3.3,1.8-3.3,1.8l-2.3,1.9c0,0-2.1,2.2-2.5,2.6
	c-0.5,0.4,0.1,1.6,0.1,2.3c0,0.7-3.5,1.7-4.9,1.3c-1.4-0.4,0,1.3,0,1.3l-5.2,1.6c0,0-1.9,0.5-3.1-1c-1.2-1.5-0.1-1.4-0.1-1.4
	l-3.3-0.3l-5.3-1l-3.3,2.1l-5.6-3.4c0,0-0.5-0.7-0.1-1.7c0.4-1-4.3,0.9-4.3,0.9l-3.8,1.4l-3.5,0.7c0,0-3.9-1.2-4.6-1.3
	c-0.7-0.1-3,1.4-3,1.4s-3.8,0.7-5,0.7c-1.2,0-1.9-0.8-1.9-0.8l-2.8,0.8l-1.8,1.5c0,0-1.9-1.2-2.2-1.8c-0.3-0.6-2.4,0.5-2.4,0.5
	l-3.7,2.3l-1.5-1.9l-0.4,6.6l-2.6-0.2c0,0-1.2-0.5-2.6-0.6c-1.4-0.1-1.2,0.9-1.2,0.9s1.7,1.9,2.5,2.2c0.7,0.3-7.8,1.9-7.8,1.9
	l1.6-0.7c0,0,0,0-0.7-0.3c-0.7-0.3-3.1,0.2-3.1-0.3c0-0.6-1.9,0.3-1.9,0.3l-2.1,2.1l-1.6,2c0,0-1.2-1-2.4-1.7c-1.2-0.7-4,1.9-4,1.9
	s-2.6,1.2-3.6,0.1c-1-1-1.4,1.3-1.4,1.3l-2.6,0.9c0,0-2.2-0.9-2.7-0.9c-0.5,0,0.1,1.7,0.1,1.7s-0.9,0.3-2.1,0.8
	c-2.7,1-7.2,2.6-9.1,2.8c0,0-3.9-1.2-4.8-2c-1-0.8,0,0-1-1.1s-1.4-0.1-1.4-0.1l-3.5,2.4l0.1,1.8l-2.7-1.9l-3.2,3l-6.4,1.8l-1.7-1.8
	l-1.4,1.5l-2.6,1.3c0,0-1.8,0.9-2.3,0.8c-0.5-0.1-2.1,0.8-2.1,0.8l-7.9,8.6c0,0-0.8,3.4-0.8,3c0-0.4-0.9-0.3-0.9-0.3l-3.7,1.4
	c0,0-1.1-0.6-1.3-1.3c-0.2-0.7-4.6,0.2-4.6,0.2l1-1.6c0,0-3.9,1.6-5.9,0.2c-2-1.4-1.3-0.7-1.3-0.7L1209,64l-2.5,0.9
	c0,0-1.7-2-2.4-2.3c-0.7-0.3-2.7,0.3-2.7,0.3s4-7.6,3.1-8.4c-0.9-0.8-3,0.5-3.2,0.9c-0.2,0.3-1.2,0-1.2,0s0.1-1-0.1-2
	c-0.2-1.1-2.1,0.2-3,0.1c-0.9-0.1-1.2,0.5-1.4,0c-0.2-0.4-2.5,0.1-3.2,0.1c-0.7,0-2.3,0.4-2.3,0.4l-1.2-0.9c0,0-1.4,0.4-2.1,0.5
	c-0.7,0.1-0.3,0.4-1.4,0.9c-1.1,0.5-2,0.1-2,0.1s-2-0.6-2.5-1c-0.5-0.4-0.4-0.7-0.1-1.5c0.3-0.8-2.1,0.4-3.4-0.4
	c-1.3-0.8,0-0.6,0-0.6s-0.9-1.2-1.3-1.8c-0.4-0.5-1.2,1.2-1.2,1.2l-2.5,1l-2.4,1.8c0,0-3.3,1.4-3.7,0.5c-0.4-0.8-1.1-1.4-1.1-1.4
	l-2.4,2.7l-0.9-1c0,0-1.8,0.3-1.8-0.5c0-0.7-0.6-0.6-1.1-1.4c-0.6-0.7,0,0-1.3-0.7c-1.3-0.7-1.8,0.3-2,0c-0.2-0.3-1.3-0.2-1.8-1.5
	c-0.6-1.4,0,0-0.8-1.1c-0.8-1.1-1,1.6-1,1.3c0-0.3-1.5-0.8-1.5-0.8s-1.2,1.5-1.2,1.1c0-0.4-1.4,0-1.4,0s-3.6-2.1-4.4-2.1
	c-0.7,0,0,1.3,0,1.3s-3.9,0.9-5.2,0c-1.3-0.9,0,0-0.6-0.5c-0.6-0.5-1.1-0.2-2.2-0.8c-1.1-0.6-5.5-0.2-5.5-0.2s0,0-0.9-1
	c-0.9-1-1.2,0.9-1.2,0.9l-0.9-0.8l-1.5-2.4c0,0-1.1-0.6-1.5-0.9c-0.4-0.3-2.3,0.5-3.7,0.3c-1.4-0.2-0.9,0-0.9,0l-1.3-0.2l0.1,3.4
	c0,0-2.6-2.3-3.2-3.2c-0.6-0.9-2.7,0.3-2.7,0.3s-1.2,0.3-1.8,0.4c-0.5,0.1,1.9,2,1.9,2l-4.4,0.9l-3-3l-1.7,1.4l-0.9,0.8l-3.3-2
	c0,0-3.2,4-3.6,3.3c-0.4-0.7-1.4,0.7-1.4,0.7s-2.3,1.7-2.5,0.9c-0.2-0.7-2.2-0.8-3.1-1c-0.9-0.2-0.8,1.7-1.2,1.4
	c-0.4-0.3-1.8-0.5-2.9-1c-1.1-0.5-2.4,1.4-2.6,1c-0.2-0.3,0-0.9-0.1-2c0-1.2-1.8-1.2-1.8-1.2l-1.6,0.8c0,0-3.5,1.6-4.3,0.6
	c-0.8-1-0.9-0.1-0.9-0.1l-1.2,2.3c0,0-1.8,0.3-2,0c-0.2-0.3-1.8-0.7-2.6-1.6c-0.7-0.9-1.6-0.4-1.6-0.4l-3,1l0.1,1.6l-3-6.7
	c0,0-0.3,1.7-1.2,1c-0.9-0.7-1.8,0.1-3.2-0.6c-1.5-0.7-2-0.8-2-0.8l1.9-2l-4.3-0.9c0,0,0,0-0.6-0.5c-0.6-0.5-4.4,0.8-4.4,0.8
	l-2.1,0.6l-1.7,2.5c0,0-1,0.8-1.8,0.1c-0.7-0.8-3.7-2.3-4.4-2.5c-0.7-0.2-2.8,1.9-2.8,1.9s0,0-1.3-1.7c-1.3-1.7-4.8,1.2-5.3,0.7
	c-0.6-0.5-1.3-0.6-2.2-1.6c-0.9-1-0.9-0.2-0.9-0.2l0.1,1.9c0,0-2.1,0.4-3.2-0.9c-1.1-1.2-2.1,0.1-2.1,0.1l-3.6,0.1l-2.2-1.3
	l-2.6,1.8l-2.1,1.3l-1.2-2.2l-1.6,1.2l-3.9,0.7l3.4-5.6l-3-0.1l0-1l-1.7-1.9l-4,1.6l-4.1-0.7l-3.6-0.9l-2.1,0.9c0,0-1.7,2.1-2.1,2.4
	c-0.3,0.3-1.1,0-2-0.8c-0.9-0.8-4.1,1.3-4.1,1.3l-5,0.3l-1,0.9l-3.1-1.8l-1,1.7c0,0-2.7,0.8-3.9,0.3c-1.3-0.5-2.7-0.4-2.7-0.4
	s-2-0.1-2.2-0.5c-0.2-0.3-2.2-1.2-2.2-1.2l-3.5,2l-1-1.8l-11.5,4.6c0,0-0.6-1.3-0.8-1.8c-0.2-0.5-2.3-0.1-2.3-0.1l-0.9-0.2l-2.8-2.4
	l-1.8,0.4l-1.2,2.5l-3.7,1.1l-2.9-1.3l-1.7,2l-2.3,1.6c0,0,0.3,2.4,0.1,2.8c-0.2,0.3-3.4-0.2-3.4-0.2s0.3-0.8-0.1-1.6
	c-0.4-0.8-3.7,1.6-3.7,1.6s-3,0.7-4.3,0.2l-2.3,1.6l-2.8,0.8l-1.5,0.1l-2-0.6l-0.1-1.4l-1.1-1.1l-2.5,0.1l-1.1-1.3l-4,1.7l-1.3,0
	l-1-1.4l-3.1-2.8l-0.7,3.3l-0.6-1.3c0,0-1-0.6-1.2-1c-0.3-0.3-1.1,1.6-2.2,0.8c-1.1-0.8-2.2,0.3-2.2,0.3l-0.5,1.8l-3.2,0.2
	c0,0-8.8-3.5-8.8-3.7c0-0.2-1.4,0.8-1.4,0.8l-3.2,1.4l-2,0.6c0,0-0.4,0-1.2-0.7c-0.9-0.7,0-0.6,0-0.6s-3.8-0.9-4.2-1
	c-0.4-0.1-1.3,1.1-1.3,1.1s-1.1-0.9-1.6-1.2c-0.5-0.3,0,1.2,0,1.2l-5,0.3l0.1,2.3l-1.4,1.1c0,0-1-0.5-1.4-1.8c-0.4-1.3-2,1.3-2,1.3
	s-1.4,1.3-1.5,1c-0.1-0.3-2.8,1-3.2,1c-0.4-0.1,5.5,3.5,5.5,3.5s-2,0.5-2.4-0.1c-0.4-0.6-2,0.2-2,0.2s-0.8,1.7-1.2,1
	c-0.4-0.7-0.8-0.3-0.8-0.3l-1.6-0.5l-4.8,1.7c0,0-3.4,0.7-4.9,0.2c-1.4-0.5-1.2-0.5-1.2-0.5l-4-0.9c0,0-1.3,0-2.2-0.8
	c-0.9-0.8-1.5-0.1-2.5-0.8c-1-0.7-1.3,0.2-1.3,0.2s-1.6,0.8-1.9,0.4c-0.3-0.3-2.6-0.7-3.5-0.9c-0.8-0.2-1.8,0.9-1.8,0.9
	s-3.4-0.5-3.7-0.7c-0.4-0.1-1.6-0.7-1.6-0.7s-3.1,0.3-3.6,0.3c-0.5,0-1.4,0-2-0.3c-0.6-0.3-1.6-0.4-2-0.6s-3.1,1.1-3.1,1.1l-2.5,0.7
	c0,0-3.1-0.5-3.5-0.6c-0.4-0.1-0.7-0.5-0.7-0.5l-1.2-0.4l-2.2,0.5c0,0-2.2-0.9-2.5-1.2c-0.4-0.3-2-0.2-2-0.2l11.6-5.6
	c0,0-1.8-1.4-2.2-1.5c-0.4-0.1-2.1,1.3-2.1,1.3l-0.8,0l-1.1-1l-3.3,0.9l-1.1-0.8c0,0-1.8,0.3-1.9,0.1c-0.1-0.3-1.7-0.4-1.7-0.4
	l-1.5,1l-3.5-0.9l-2.4,0.5c0,0-1.5-0.5-2.9-1.2c-1.4-0.7-1.9,1.4-1.9,1.4l-0.6-0.4l-17,4.9l-1.1,1.3l0.1,1.9c0,0-2.2-0.5-2.9-0.6
	c-0.6-0.1-0.7,1.2-0.7,1.2s-0.4,1.3-1.4-0.6c-1.1-1.9-2,0.2-2,0.2l0.6,1.4l-3.2,2l-2.4,1.6l-3.5,2.2c0,0-1,1.3-2.1,0.1
	c-1.1-1.2-3.2,0.1-3.2,0.1l-1.4,1.5c0,0-9.2,1.8-11,0.8c0,0-6,0.6-7.5,0.7c-1.4,0-5,0.8-5,0.8l-1.8-0.8l-3.2,0.1l-1.7,2.4l-2.2-0.6
	l-3.2,0.1c0,0-1.4-0.2-0.1-1.7l-6.8-0.6l-2.4,1.6l-4.9,1.4c0,0-2.8,0.7-3.9,1c-1.1,0.2-8.1-4.9-9.2-5.1c-1.1-0.2-3.3-1.8-3.3-1.8
	l0.1,1.9l-3.3-1.2l-5,0.4l-2.1,1.1c0,0,0,0-2.2-2.3c-2.2-2.3-2.5,0.5-2.5,0.5l-2.1,0.5l-1.8,0.1c0,0,0,0-0.4-0.8
	c-0.4-0.8-3.9,0.6-3.9,0.6l-2.8,1.4l-5.6,1.3l-2.8,2.7l-2.5,0.1l-4.3-1.4l-3.5,1.2l-2.5-0.8l-2.5,0.9l-2.9-1l-3.2,0.7l-4.7-1.6
	l-5,0.2c0,0-3.6-1.4-4.4-2c-0.7-0.6-2.1,0.5-2.1,0.5s-2.5-0.6-2.6-1.6c0-1.1-2.8,0.9-2.8,0.9l-8.6-1.8l-0.9-0.1c0,0-5.4-0.2-6.1-0.5
	c-0.7-0.2-1.4-0.3-1.4-0.3s0,0-0.7-0.6c-0.7-0.6-3.1-0.8-3.1-0.8l-2.1-0.1c0,0-2.5-1-2.2-1.4c0.3-0.4,0.1,1.6,0.1,1.6l-7.3,1.2
	l-1.7-1.2l-1.7,2.3l-1.7,1l0,0.9c0,0-3,0.6-3.2,0.1c-0.2-0.5-1.4,0.3-1.4,0.3l-1.4,0.9l-5-1.1l0,1l-1.2,1.2c0,0-1.8-1.1-2.4-1.3
	c-0.5-0.2-1.6,0.7-1.6,0.7l-3-0.4c0,0-1.9,0.6-3.3,1.2c0,0-2.7-1.6-3.1-2.1c-0.4-0.5-0.8,1.6-0.8,1.6l-4.8,1.1l0-0.7
	c0,0-1.9,0.9-2.5,0.6c-0.5-0.3,0-0.4-0.1-1.4c0-1-1.6-0.4-1.6-0.4l0,1.3c0,0-4.3-0.5-5-0.8c-0.7-0.3-1.8,0-1.8,0l-1.1-1.5l-2.4,1.4
	l-2.5,2.3l-1.1-0.9l-2.4-1.3c0,0-3.2-0.2-3.8-0.6c-0.6-0.4-2.7,0.4-2.7,0.4s-1.8-0.8-2.5-1.2c-0.7-0.4-3.4,0.8-3.7,0
	c-0.4-0.7-1.3-0.4-1.3-0.4l-2.4-1.3l-3.4,0.6l-1.4,0.9c0,0-3.5,1.2-4.1,1.2c-0.5,0-1.8-0.3-2.3-0.7c-0.6-0.4-2.4-1.4-2.4-1.4
	l-2.6,2.3l-5.2,0.4l0-1.2l-3.8-0.4l-2.8,0.4l-1.4-0.5c0,0-1.5-1.1-1.5-1.4c0-0.3-4.1,1.1-4.1,1.1l-1.1-0.1c0,0-1.7-4-1.9-4.8
	c-0.2-0.7-1.8,0.7-2.8,0.8c-1.1,0.1-0.1,4-0.1,4s-6,1.8-7.4,2c-1.4,0.2-1.1,0.5-1.1,0.5l-2.5,0.9l0.1,1.5c0,0-1.4-3-1.9-3.4
	c-0.5-0.3-1.7,1.2-1.7,1.2l-2.2-0.7c0,0-1.8-3.3-3.5-4.3c-1.7-0.9-1.2-0.5-1.2-0.5l-3.1,1l-2.8,0.8c0,0,0,0-0.8-1.4
	c-0.8-1.4-1.7-0.2-1.9-0.6c-0.3-0.4-4,1.7-5.7,1.3c-1.7-0.4,0-0.9,0-0.9s-7.6,0.5-9.3,0.4c-1.7-0.1,0,0-0.5-1.3l-8.3,2l-2.3,1.4
	c0,0,0-0.7-0.1-2.4c-0.1-1.7-2.8,0.9-2.8,0.9l-3.7,2.1c0,0-5.7,0.5-6.7-0.3l-2.9-0.5l-2-2.4c0,0,0,0-0.5-0.4
	c-0.5-0.4-3.3-0.3-4.4-1.8c-1-1.5-1.7-1.2-2.4-1.8c-0.7-0.5-4.8-0.1-4.8-0.1s0,0-1.5-1.9c-1.5-1.9,0-0.9,0-0.9l-6.6,1.2l0,1.3
	l-5.7,0.9l-1.2,0.7l-3.6-0.6l-1.4,1.2l0,1.3l-4.8-1l-4.5,1.4l-4.3,0.3c0,0-3.6-1.7-4.1-2.4c-0.5-0.7-3.3,2-4.2,2.1
	c-0.9,0.2-2.4,0.5-2.4,0.5s-1.9-0.5-2.2-1.8c-0.3-1.3-4.8,0.2-6.7,0.2c-1.9,0.1,0.1,3.7,0.1,3.7l-2.3,1.6c0,0-8.1,0.4-9.5,0.2
	c-1.4-0.2,0,0,0.4-1.2c0.4-1.2-7.3,1.8-7.3,1.8l-1.2,1l-5.5-1.2l-5.4,0.9l-5.2,0.2l-2.2-1.8l-6.8,2.8l-1.4,0.9l-6.7-0.3l-0.1-1.6
	l-7.5,4.1l-3.3,0.1l-5,1l-5,0.2l-12,3.8l-11.4,0.4L161,79.9l0.1,1.7l-12.2-2.8l-0.1-2.8l-7.8,0.3l-7.1,0.2c0,0-4.2,1-9.3,0.3l-5,0.2
	l-5.6,3l12.3,3.2l-4.2,2l-18.6-0.8l0.6-3.2l-7.7,3.5l-5.5,6.2l-6.4,0.2L70,88.4l-11.1-6.5l-3.6,0.1l-7.1,0.2l-4.9,3.1l-12.6,1.3
	l-13.3-1.8L0,93.4V354.5"/>
</svg>
