<?xml version="1.0" encoding="utf-8"?>
<!-- Generator: Adobe Illustrator 25.2.1, SVG Export Plug-In . SVG Version: 6.00 Build 0)  -->
<svg version="1.1" id="Layer_1" xmlns="http://www.w3.org/2000/svg" xmlns:xlink="http://www.w3.org/1999/xlink" x="0px" y="0px"
	 viewBox="0 0 36 36" style="enable-background:new 0 0 36 36;" xml:space="preserve">
<style type="text/css">
	.st0{fill:#FFFFFF;}
</style>
<g>
	<path class="st0" d="M18,22.6c2.6,0,4.7-2.1,4.7-4.7c0-2.6-2.1-4.7-4.7-4.7s-4.7,2.1-4.7,4.7C13.3,20.5,15.4,22.6,18,22.6z
		 M18,14.9c1.7,0,3,1.3,3,3c0,1.6-1.4,3-3,3s-3-1.3-3-3C15,16.2,16.3,14.9,18,14.9z"/>
	<path class="st0" d="M22.8,14.1c0.7,0,1.1-0.5,1.1-1.1s-0.5-1.1-1.1-1.1c-0.6,0-1.1,0.5-1.1,1.1S22.2,14.1,22.8,14.1z"/>
	<path class="st0" d="M10.6,25.4c0.5,0.5,1,0.8,1.6,1c0.6,0.2,1.2,0.4,2.2,0.4c0.9,0,1.2,0,3.7,0c2.4,0,2.7,0,3.7,0s1.6-0.2,2.2-0.4
		c0.6-0.2,1.1-0.5,1.6-1s0.8-1,1-1.6c0.2-0.6,0.4-1.2,0.4-2.2c0.1-0.9,0.1-1.2,0.1-3.7c0-2.4-0.1-2.7-0.1-3.7s-0.2-1.6-0.4-2.2
		c-0.2-0.6-0.5-1.1-1-1.6s-1-0.8-1.6-1C23.4,9.2,22.8,9,21.8,9S20.5,9,18,9c-2.4,0-2.7,0-3.7,0s-1.6,0.2-2.2,0.4
		c-0.6,0.2-1.1,0.5-1.6,1s-0.9,1-1.1,1.6C9.2,12.6,9,13.2,9,14.2c0,0.9,0,1.2,0,3.7c0,2.4,0,2.7,0,3.7s0.2,1.7,0.6,2.2
		C9.8,24.4,10.1,24.9,10.6,25.4z M10.6,17.9c0-2.5,0-2.7,0-3.7c0-0.9,0.2-1.4,0.3-1.7c0.2-0.4,0.4-0.7,0.7-1c0.3-0.3,0.6-0.5,1-0.7
		c0.3-0.1,0.8-0.3,1.7-0.3c1,0,1.2,0,3.7,0s2.8,0,3.7,0c0.9,0,1.4,0.2,1.7,0.3c0.4,0.2,0.7,0.4,1,0.7c0.3,0.3,0.5,0.6,0.7,1
		c0.1,0.4,0.2,0.8,0.3,1.7c0,1,0,1.2,0,3.7s0,2.8,0,3.7c0,0.9-0.2,1.4-0.3,1.7c-0.2,0.4-0.4,0.7-0.7,1c-0.3,0.3-0.6,0.5-1,0.7
		c-0.3,0.1-0.8,0.3-1.7,0.3c-1,0-1.2,0-3.7,0s-2.7,0-3.7,0c-0.9,0-1.4-0.2-1.7-0.3c-0.4-0.2-0.7-0.4-1-0.7c-0.3-0.3-0.5-0.6-0.7-1
		c-0.1-0.3-0.3-0.8-0.3-1.7C10.6,20.6,10.6,20.4,10.6,17.9z"/>
</g>
</svg>
