<?xml version="1.0" encoding="utf-8"?>
<!-- Generator: Adobe Illustrator 25.2.1, SVG Export Plug-In . SVG Version: 6.00 Build 0)  -->
<svg version="1.1" id="Layer_1" xmlns="http://www.w3.org/2000/svg" xmlns:xlink="http://www.w3.org/1999/xlink" x="0px" y="0px"
	 viewBox="0 0 1920 809" style="enable-background:new 0 0 1920 809;" xml:space="preserve">
<style type="text/css">
	.st0{fill:#E88561;}
</style>
<path class="st0" d="M1917.1,25.8l-3.7,0.2l-8.1-18.4L1891.8,0l-6.7,0.3l-8.8,16.8l-9.7,9.3l2.3-8.9l-18.7-2.9l-5.3,5.2l11,9.4
	l-7.3,8l-5.2,0.2c-4.8-2.1-9.7,0.5-9.7,0.5l-7.5,0.4l-8.2,0.4l1.3-7.7l-11.2-8.3l-0.8,4.7l-37.4,11.2c-5.2,0.2-11.9,0.6-11.9,0.6
	l-14.3,10.1l-5.2,0.2l-5.6,2.6l-3.5,0.2l-9.8,11l0.7-4.3l-6.7-1.2l-1.9,2.4l-8.4,7.4l-1.4-5l-5.5,0.3l-6.1,2.2l-5-3.7l-1.7,2.8
	c0,0-9.5,7.9-8.4,4.7c1-3.2,2.4-2.5,1-3.2c-1.4-0.7-9.9,0.1-9.9,0.1l-3.2,4.4c0,0,0.2,10.2-1.8,10.3c-2,0.1-7.3,3.9-7,0.3
	c0.4-3.5-1.4-5-1.4-5s-1.6,0.9-2.7,1.3c-1.1,0.4-5.3,7.7-5.4,5.7c-0.2-1.9-3-6.9-3-6.9l-4.5,0.6l-5.3,3.8l-4.4-2.9l-0.6,3.5l-2,3.2
	l-3.4-1.7l-1.6,2l-6.3,2.3l-0.6,3.5l-6.9,2.9c0-0.5-0.1-1.2-0.2-2.1c-0.5-5.4-0.5-5.4-0.5-5.4s-4.4,1-4.8-0.6
	c-0.5-1.5-1.4-0.7-1.6-5c-0.3-4.3-3.2-4.1-3.5-5.3c-0.3-1.2-0.3-1.2-0.3-1.2l-0.8-6.6l-2.7-1.4c-0.6-2.3-6.7-1.2-6.7-1.2l-4.9,5.7
	c0,0-4.2,7.2-3.4,2.5c0.8-4.7,1.1-6.7,1.1-6.7l-3.1,3.7l-9.5,5.1c0.1-3.5,1.8-3.2,0.1-3.5c-1.7-0.3-9.8,0.8-9.8,0.8s1.9-1.3,0.4-2.4
	c-1.5-1.1-6.5,4.6-6.5,3.4c0-1.2-1.6,2-1.7-1.9c-0.1-3.9-0.1-3.9-0.1-3.9l-3.3,2.1l-3.6,2.5c0,0,0.3,1.2-1-1.5
	c-1.3-2.7-1.4-12-1.4-12l-1.9-2.2c0,0-2,4.2-2.4,3.3c-0.4-0.9-0.2-9.4-0.2-9.4l-0.7,4.1l-3,2.5c0,0,0.2,0.9-1.3,1.2
	c-1.5,0.4-8.6,5.1-8.6,5.1s-1,10.7-2.1,11c-1.2,0.3-3.5,4.3-3.3,2.2c0.2-2.1,0.5-13.3,0.5-13.3l-1.1-0.2c0,0-4.9,3.7-4.7,2.9
	c0.2-0.9-0.8-4.1-0.8-4.1l-1.2-1.4l-3.1,1l-3.7-1.3l0.6-3.3l-5.5,0.8l-3.9,6.3c0,0-1.4-2.9-1.7-4c-0.4-1.2-1.5-2-2.1-2
	c-0.6,0-4.8,3.2-4.8,3.2l-1.9,2.4l-3.8,1.6l-1.8-3.7c0,0-1.1,0.9-1.1-1.1c0-2.1-3.3,1-3.9-0.1c-0.5-1.1-2-3.4-2-3.4s-2.6,2.2-2.9,1
	c-0.4-1.2-3.6-1.9-3.6-1.9l-1.8-3.6l-0.7-2.5l-3.7,6.4l-3.2,3.7l-0.4-4.1c0,0-1.2,0.6-1.8-0.2c-0.6-0.9-4.8-2.4-4.8-2.4l-0.6,3.5
	c0,0-1.9,1.6-1.5-1.1c0.5-2.7,1.1-3,0.7-3.8c-0.4-0.9-2.9,1.6-2.9,1.6l0.4-2.1l-5.5,2.9c0,0-1.6,5.9-1.7,4.5
	c-0.1-1.5-2.1-6.1-2.1-6.1c-1.7,1.5-4,3.1-4,3.1l-2.9-1.3c0,0-1.5,2.4-2,1.9c-0.5-0.6-1.8-3.7-1.8-3.7l-1.9,3.3l-0.5,2.7l-4.6-3.3
	l-1.9,2.4c0,0-1.7,2.1-1.6,0.7c0.1-1.5-3.4,0.2-3.4,0.2l-0.4,2.4l-2.3,2.6l-3,6.4l-1.1-3.5l-8.1,3c0,0-0.5,2-0.7,3.4
	c-0.3-1.3-1.5-3-1.5-3l-2.1-0.5c0,0-2.3-0.5-2.8-2.2c-0.4-1.7-0.4-1.7-0.4-1.7s-0.7-0.3-1.3-1c-0.6-0.7-6-1.6-6-1.6l-0.9-0.3
	l-7.9-5.5c0,0-3.9,5.5-3.4,2.5c0.5-3-1.8-4.6-1.8-4.6s-2,3-2.4,1.3c-0.4-1.7-3.5-5.7-3.5-5.7l-5.2,0.2l-4-4.5l-3.7,1.9l-2.5-2.8
	l-3,2.5l-2.2-2.2l-4.2,3.1l-3.8-3.9l-2.6,0.1l-4.2,7.2l-6.4,3.3l-3.6,3.7c0,0-4.3,3.7-4.3,1.4c0-2.3,0-2.3,0-2.3l-1.9,0.1l-2.4,1.3
	c0,0-1.7,7.7-2.8,1.3c-1.1-6.4-1.1-6.4-1.1-6.4l-2.7,3.1l-5.3,0.8l-2.7-3.4l-0.9,5.3c0,0-1.4-4.6-2.4-5.2c-1-0.5-5.6-15.1-6.8-14.4
	c-1.2,0.6-4.5,2.6-4.5,2.6l-5.8,3.8l-3.3,4.3l-6.7-2c2.2-4.2,0.8-4.7,0.8-4.7l-3.4,0.2l-1.9-1.7l-3,6.6l-3.4,0.2l-1.5-2.3
	c0,0-4,1.9-5.5,2c-1.5,0.1-8,1.5-8,1.5c-1.4-2.9-11.8,1.7-11.8,1.7l-2.2,4.2c0,0-2.8,3.7-3.4,0.2c-0.5-3.5-2.2,0.1-2.2,0.1l-4.7,6.1
	l-3.3,4.3l-4.3,5.3l-0.1,4c0,0-2.1,5.8-2.2,0.4c-0.1-5.4-1.2-1.7-1.2-1.7s-0.7,3.7-1.3,3.3c-0.6-0.4-2.7-1.8-2.7-1.8l-0.9,5.2
	l-1.8,3.5l-20,12.9l-0.4-1.2c0,0-1.7,5.9-2.7,3.9c-1-2-2.3-3.6-2.3-3.6l-2.7,1.2l-3.1-2.5l-2.1,2.8c0,0-1.5-0.3-1.5-1.1
	c0-0.8-2,0.1-2,0.1l-0.7-2.3l-3.9,2.3l-0.6-2.9l-0.8-0.2c0,0-2.5,3.6-2.8,3.5c-0.3-0.2-1.5-4.2-1.5-4.2l14.8-15.1c0,0-1.8,0.3-2-0.7
	c-0.2-1-2-3.6-2-3.6l-2.6,1.2l-1-1.1c0,0-0.2-1-0.5-1.4c-0.3-0.4-3.3-1.8-3.3-1.8l-2.9,1.7c0,0-3.3,3.5-3.7,2.9
	c-0.4-0.6-1.4-0.7-1.8-1.7c-0.5-1-1.4-0.9-1.9-0.9c-0.5,0-3.8,0.8-3.8,0.8s-1-1.5-1.3-1.9c-0.3-0.4-3.5-2-3.5-2s-1.5,3-2.3,2.5
	c-0.8-0.6-3.1-1.6-3.1-2.6c-0.1-1-2.2,1.1-2.2,1.1s-0.8,2.4-1.4,0.5c-0.7-1.9-1.7-0.1-2.2-2.2c-0.5-2.1-1.8-2.3-1.8-2.3l-3.6-2.6
	c0,0,0.2,0-1-1.3c-1.3-1.3-5.1,0.4-5.1,0.4l-5.8,4.6l-1.3-1.5c0,0-0.7,1.2-0.7-0.7c0-2-1.7,2.6-1.7,2.6s-2.1,2.1-2.2,0.5
	c-0.1-1.6-2.4-0.3-2.4-0.3s4.2,10,3.9,9.9c-0.3-0.2-3.8,3.3-3.8,2.5c0-0.8-2.1,2.6-2.1,2.6s-3,7.2-2.7,3.6c0.2-3.5-0.5-5.1-0.5-5.1
	l-2,3.1l-1.1,6.3l-5.3,0.6c0,0-0.2,4.3-0.6,3.3c-0.3-1-1-3.5-1-3.5s-1.5,3.2-1.9,3c-0.3-0.2-3.8-2.9-3.8-2.9s0.8,0.2,0.3-1.8
	c-0.5-1.9-0.9-1.9-0.9-1.9l-2.3,1.5l-4,3.7c0,0-1.9,2.6-1.8,2c0.1-0.6-7.2-10.7-7.2-10.7l-3.4,0.4l-1.5,5c0,0-1.7,3-2.5,0.7
	c-0.7-2.3-2.6,3.1-2.7,2.1c-0.1-1-0.8-2.7-0.8-2.7l0-3.5l-2.4,9.1l-1.7-7.9l-0.3-3.9l-1.3-0.1l-5,4.5l-0.5-3.7l-2.6,0.1l-0.6-3.1
	l0.7-3.9l-1.8-1.7l-1.6,0.1l-3.2,2l-3.1,4.3c-1.1-1.4-4.5,0.5-4.5,0.5s-4.7,6.7-4.6,4.3c0-2.3,0.8-4.4,0.8-4.4s-3.1-1.6-3.4-0.7
	c-0.3,0.9-1.3,7.7-1.3,7.7l-3.1,4.3l-2.8,5.4l-2.3-3.7l-4.4,2.8l-2.5,6.9l-2,1l-1.6-6.7l-0.8-0.5c0,0-2.4,1-2.3-0.5
	c0.1-1.5,0.1-5,0.1-5l-14.2,12.4l-0.1-5l-4.6,5.5c0,0-1.6-2.6-1.6-3.4c0-0.9-2-1.4-2-1.4s-1.5,0.1-2.5-1.3c-1.1-1.4-4.2,0.8-4.2,0.8
	l-1.9,4.8l-2.3-5.2l-1.5,2.4l-5.3,0.5c0,0-4.3,5.8-4.8,3.5c-0.5-2.3-1.1-3.2-1.6-2.3c-0.5,0.9-3.4,6.6-3.4,6.6l-2.6,2.5l-3.2-2.8
	l-3.9-2.2l-5,4.3l-0.8-5.2l0.5-2.7l-3.1-0.4l6.4-15.2l-4.4,1.7l-2.2,3.3l-0.1-6.2l-2.8,3.7l-3.6,4.9l-1.6-3.7l-3.7,0.2
	c0,0-1.7,3.6-2.2,0.1c-0.5-3.5-2.9-2.5-2.9-2.5l-0.9,5.3c0,0-0.4,2.4-0.8-0.5c-0.4-2.9-1.1-3.2-1.4-4.6c-0.3-1.5-5.4,6.4-5.8,1.7
	c-0.5-4.7-0.5-4.7-0.5-4.7s-3.2,5.7-3.8,5.2c-0.6-0.6-2.9-4.8-3.2-7c-0.4-2.2-1.9,0.1-1.9,0.1l-3,6.7l-2.5,1.6c0,0-4.7,3.4-5,2
	c-0.3-1.5-0.3-1.5-0.3-1.5l-4-2.7l3-5.6c0,0-0.5-0.4-1.6-2.4c-1.1-2-2.4,0.1-3-1.9c-0.6-2-1.8,2.7-1.8,2.7l0.4-18.8l-0.8,4.4
	l-3.6,2.5c0,0-1.2,1.5-1.5-1.1c-0.3-2.6-1.8-3.7-1.8-4.6c0-0.9-2-0.2-2-0.2l-2.4,6.3c0,0-0.6,2.7-0.9-0.3c-0.2-2.9-4.7,1.4-4.7,1.4
	l-2,2.1c0,0-1.8-0.2-1.3-3.5c0.6-3.3,1-4.7,1-5.6c0-0.9-2.4,4.2-3.3,2.8c-0.9-1.4-2.3-1.9-2.5-2.8c-0.2-0.9-1.1,4.5-2,3.9
	c-0.8-0.5-2.8-0.7-2.7-2.8c0.2-2.1-3,2.5-3,2.5s-1.8,3.9-1.8,1.8c0-2.1-5.4,9-5.4,9l-2.3-5.8l-1.3,2.1l-2.5,3.9l-1.5-8.4l-5,2.3
	c0,0,1.5,5.2,0.9,5.5c-0.6,0.3-2,1-2,1s-2.8,3.4-2.9,0.7c-0.1-2.6-1.6-9-1.6-9l-1.6,9.5l-1.2-0.5c0,0,0.5,0.6-0.9,0
	c-1.4-0.5-3.8,1.6-4,0.8c-0.2-0.9-1-2.6-1-2.6l-0.3-6.7l-0.5-2.3c0,0-1.3,5.3-1.7,2.4c-0.4-2.9-0.4-2.9-0.4-2.9s-4.8,0.8-5.6-0.9
	c-0.8-1.7-1.5-0.8-1.8-2.3c-0.3-1.5,0.5,1.1-0.3-1.5c-0.8-2.6-5.3-0.3-5.3-0.3s0.1,3.5-0.6,3.5c-0.7,0-3.4-6-3.4-6s-1.7,1.3-1.5,0.1
	c0.2-1.2-1.8,3-1.8,3s-1.2-1.4-1.1-2.3c0.2-0.9-1.5,6.8-1.7,3.6c-0.2-3.2-0.3,0.6-0.2-3.2c0.1-3.8-1.1-3.5-1.1-4.3
	c0-0.9-1.1,1.8-2-0.2c-0.9-2-0.7,0-0.9-2c-0.2-2-0.8-1.7-0.5-3.8c0.4-2.1-1.6-1.4-1.6-1.4l-0.4-2.9l-3.9,7.5c0,0-0.5-1.4-0.5-3.8
	c0-2.3-4.1,1.4-4.1,1.4l-3.4,4.9l-3.1,2.8c0,0-1.7,4.8-1.9,3.3c-0.1-1.5-0.4-5-0.4-5s1.2,0.5,0.3-1.8c-0.9-2.3-4,0.8-3.3-1.3
	c0.7-2.1,1-3,0.7-4.1c-0.3-1.2-2.1-2.8-2.1-2.8s-0.7-1.1-2.1,0.1c-1.3,1.2-1.1,2.1-1.9,2.4c-0.8,0.3-2.4,1.3-2.4,1.3l-0.8-2.4
	c0,0-1.8,1-2.6,1c-0.7,0-3.4,1.3-3.4,0.2c0-1.2-0.6,0.3-1.5,0.1c-0.9-0.3-3.5,3.1-3.2,0.1c0.3-2.9,1-5.6,1-5.6s-1-0.8-1.3,0.1
	c-0.3,0.9-3.2,4.5-3.7,2.2c-0.5-2.3,7.5-23.1,7.5-23.1s-2.3,1.6-2.9,0.7c-0.6-0.9-1.3-6.4-1.3-6.4l-3,2.5l-2-2.3c0,0,0.4,2-0.9-2
	c-1.3-4-6.2,0.3-6.2,0.3l1.9-4.5c0,0-5,2.3-4.8,0.2c0.2-2.1-0.6-3.8-0.6-3.8l-4.5,3.7c0,0-1,0.3-0.8-0.8c0.2-1.2-2.4,8.3-2.4,8.3
	L687.7,50c0,0-2.1,2.4-2.6,2.2c-0.5-0.3-2.8,2.2-2.8,2.2l-3.4,3.4l-2.2,4.2L676,57l-7.5,4.8l-4.8,8l-1.8-5.4l-0.9,5.1l-4.8,6.5
	c0,0-1,2.8-1.4-0.3c-0.5-3.1,0.1-0.8-0.5-3.1c-0.6-2.3-4-5.7-4-5.7c-2.1,0.6-7.6,4.8-10.9,7.5c-1.6,1.2-2.6,2.1-2.6,2.1
	s-0.3,4.7-0.8,4.7c-0.5,0-2.3-2.6-2.3-2.6l-3.1,2.5c0,0-1.6,6.3-2.1,3.4c-0.5-2.9-3.7,0.2-3.7,0.2s-4.2,7-5.1,5.1
	c-0.9-1.9-1.6-4.8-1.6-4.8l-2.7,5.4l-3.2,5.6c0,0-2.4,2.5-2.1,0.9c0.3-1.6-2.4-0.3-3-1c-0.6-0.8-0.6-0.8-0.6-0.8l2.1-1.9
	c0,0-9.6,4.2-9,5s1.4,6.2,1.4,6.2s-0.2,2.7-1.6,2.4c-1.4-0.3-2.4-1.8-2.4-1.8l-2.6-0.7l-3.8,18.3l-0.5-5.4l-5,6.1
	c0,0-2.7,2.9-2.7,1.3c0-1.6-1.4-5-1.4-5l-2.7,4l-3.3,2.1c0,0-0.3-2.3-1.6-2.3c-1.2,0.1-5.5,1.8-5.5,1.8s-3.2,4.1-3.8,3.7
	c-0.7-0.4-4-3.7-4-3.7l-4,1.8l-4.6,3.7c0,0-5.8,5-4.8,2.2c1-2.8,0.8-4.7,0.8-4.7l-4-9.7l-4.4,5.7l-4.9-2.9l-3.3-1
	c0,0,1.2,0.3,0.7-3.9c-0.5-4.3-2.7-3-2.7-3l-6.1,4.2c0,0,0.7,4.7-0.6,3.5c-1.3-1.1-5.4,1.4-5.8,3.4c-0.3,2-0.4,5.1-1.1,6.3
	c-0.7,1.2-4,7.2-4,7.2l-3.4,5.2c0,0-3,7.2-4.3,4.9c-1.3-2.3-3.3-17-3.3-17l-1-1.5l-2.1-3.4l-5.4,5.3l-4-4.1l-2.9,1.3l-4,2.9
	l-1.8-2.7l-5.6-0.1c0,0-1.8,5.9-2.5,4.4c-0.7-1.5-3.8-3.7-3.8-3.7l-1.3-2.3l-3-1l-1.1-5l-3.5,12.3c0,0-3.6,5.3-3.3,1.7
	c0.4-3.5-0.5-7-0.5-7l-2.6-2.2c0,0-2.9,4-2.6,2.5c0.3-1.6-0.1-6.6-0.1-6.6l-3.5-1.4l-5,3.4l-0.9-7.8c0,0-5.9,4.2-4.9-1.7
	c1-5.9,1.7-2.8,1-5.9c-0.7-3.1-1.3-5.5-1.3-5.5l-2.5,0.1l-3.9,5.7c0,0-4.2,4.1-4.4,2.6c-0.2-1.6-2.5-2.6-2.5-2.6l-2.4,6.8
	c0,0-3.6,2.5-3.6,1c0-1.6-1.8,3.2-1.8,3.2l-2.9,9.5l-1.5,1.6c0,0-2.2-0.3-1.8-2.7c0.4-2.4,0.7-3.9,0.7-3.9s-1.5,2.8-1.6-0.7
	c-0.1-3.5-0.5-5.4-0.5-5.4s-4.5,3.3-3.8,1.7c0.8-1.6,0.5-7.1,0.5-7.1s-0.6,0.4-1.2,0.1c-0.7-0.4,0,2.7-0.7-0.4
	c-0.7-3.1-1.7-4.6-1.5-5.8c0.2-1.2-2.7,1.3-2.7,1.3l-3.6,2.5c0,0-2.2-3-2.4-1.8c-0.2,1.2-2.8,8-2.8,8s-3,2.9-3.1,0.9
	c-0.2-1.9-1.7-1.9-1.7-1.9l-3.1,0.9c0,0-2.3,3.6-2.4,2.5c0-1.2-1.5-5.8-1.5-5.8s0.8,3.9-2,4.4c-2.8,0.5-10.7,6.4-10.7,6.4l-1.8-2.7
	l-2.3,2.1l-2.4-3.4l-6.7,7.4c0,0-5.3,9.6-6,8.5c-0.8-1.1-1.3,1.6-2.8,2.1c-1.6,0.5-8.3,5.5-8.3,5.5s-2.2,4-3.3,1.7
	c-1.1-2.3-1.2-1.5-3.5-1.4c-2.2,0.1-11.7,4.8-11.7,4.8s-2.1,5.2-2.2,0.1c-0.1-5.1-0.3-7-0.3-7s1.4-12.9-0.8-12.8
	c-2.2,0.1-7.6-0.4-7.6-0.4s2-1.7,0.9-3.6c-1.2-1.9-4.5,0.2-4.5,0.2l-4,0.2c0,0,2.3-4.8,1-5.9c-1.3-1.1-7-0.8-7-0.8l-1.6-2.3
	c0,0-1-1.1-2.1-0.7c-1.1,0.4-3.1-0.6-3.1-2.2c0-1.6-3.6-1.9-3.7-3c-0.1-1.1-2.2-3-2.2-3l-1.5-1.1l-5.5,4.5l-3.5,0.2l-3.4,14.4
	l-4.9,2.9c0,0,0.2,1.5-1.2,0.1c-1.5-1.4-6.5,0.3-6.5,0.3l-3-2.5l-5.2,2.9c0,0-1.8,1.6-2.2,0.1c-0.5-1.5-3,0.1-3,0.1
	s-3.3,2.1-4.2,0.2c-0.9-1.9-4,0.2-4.3-2.1c-0.3-2.3-1.4-4.6-1.4-4.6s-1.9,0.9-2.8,1.7c-0.9,0.8-3.3,3.3-3.3,3.3l-1.4-5
	c0,0-3.7,8.4-3.4-1.6c0.2-10-3.7-8.6-3.7-8.6s-1,1.6-1.8,1.6c-0.7,0,0.5,2.7-0.7,0c-1.3-2.7-1.5-16.1-2.1-16.8
	c-0.6-0.8-3.4-0.2-3.4-0.2l-1.2-5.8l-4.4,2.6c0,0-3.2,8.4-3.7,7.2c-0.5-1.1-3.5-1.4-4.5-1.4c-1,0-5.6,4.2-5.6,4.2l-3.3,9.1
	c0,0-1.6,2-1.9-1.9c-0.3-3.9-0.3-3.9-0.3-3.9l-4-1.2c0,0-1.9,6.5-2.8,3.5c-1-3.1-5.5,7.9-5.5,7.9l0.1-6.9l-7.8,11.2l-4.5,0.2
	c0,0-2.8,3.7-3.2-1.6c-0.3-5.3-4-5.5-4-5.5s-4.7,5.7-4.9,4.1c-0.2-1.6-1.6-5-1.6-5l-1-2.7c0,0-3-1-3.3-2.6c-0.2-1.6-2-1.1-2.7-1.4
	c-0.7-0.4-2.9,2.5-2.9,2.5s-7,10.5-5.2,3c1.8-7.5-1.2-1.9-1.2-1.9l-7,4.6l-2-1.1c0,0-3.1,5.2-3,3.3c0.1-2-2.4,5.6-3.2-0.2
	c-0.7-5.8-3.1-12.2-3.1-12.2l-3.5,1.7l-1.9-3.4l-3.3,3.7c0,0-3,7.2-2.4,2.7c0.5-4.5-3-2.8-3-2.8l-6,15.5l-4.2,0.2l-3.9,2.7
	c0,0-2.6,0.5-2.6-0.7c0-1.2-2.1,0.9-2.1,0.9s-3.8,9.1-3.4,6.7c0.4-2.3,0.8-9.2,0.8-9.2l-6.6,9.4l-5.3,2.3l0.7-4.3c0,0-0.4,0.8-1-1.5
	c-0.6-2.3-1.3-5.2-1.3-5.2s-1.8,3-1.7,0.1c0-2.9-2,0.3-2.6-2c-0.6-2.3-1.7,0.1-2.5,0.1c-0.7,0-3.9,2.3-3.9,2.3l-3.5,5.8l-3.8,3.6
	l-2,0.1l-3.9,0.2l-4.5,0.2l-0.4,2.6l-1.4-7l-3.5,7.2l-2.2,0.1l-0.2-11.7l0.6-3.2l-3.7,0.2l-3.7,6.3l-1.9,0.1l-6.6-0.3l-2.6,2.5
	l-3.9,5.5c0,0-0.2,0.2-0.4,0.4v248.1V799c1.1,0.1,3.7,2,4.1,2.1c0.4,0.1,1.9,0.9,2.4,0.8c0.5,0,0.9,0.4,0.9,0.4l2.1,0.9l2.7-1
	c0,0,0.7-1.9,1-2.9c0.3-1,1,0.1,1,0.1l1.2,1.9c0,0,0.8,0,1.2-0.7c0.5-0.7,3.2,0,5.5-2c0.5-0.4,0.8-0.7,0.9-0.9c-0.6,0-1-0.1-1-0.1
	s1.4-0.6,1,0.1c0.8,0,1.8,0.1,2.2,0.1c0.8,0,1.3,0.6,1.7,0.7c0.4,0.1,2.5,0.3,2.5,0.3s3.1-0.4,3.8-1.1c0.7-0.7,2.7,1,2.7,1l3,2.8
	c0,0,6.2,2.6,8.3,1.8c1.3-0.5,1.7-0.6,1.7-0.6c0-0.2,1.2-6.9,5.9-8.8l2.4,1.2c0,0,2.1,0.5,4.9,0c2.8-0.5-0.2-1.6-0.2-1.6
	s3.9,0.4,5.6-0.4c1.7-0.8,2.8,0.1,2.8,0.1s0,0,0.6-1.7c0.6-1.7-0.2-2.3-0.2-2.3l5.2,3.3l4.1,2.4c0,0,0,0,0.7-0.7
	c0.7-0.7,1.7-0.8,1.7-0.8l5,4.3l0.3,3.6l2,1.7c0,0,1.4,1.1,4.3,1.9c2.9,0.8,2.8,0.1,2.8,0.1l3.2,1.1c0,0,3.7,0.8,4.7,0.7
	c1-0.1,3.3-0.9,3.3-0.9l-0.4-4.1c0,0,4.5,1.5,5.3,1.8c0.8,0.3,2.4,0.8,3.4,0.8c1-0.1,2.3,2.2,2.3,2.2s1.3,0.2,3.7-1.6
	c2.4-1.8,3.8,1.7,3.8,1.7s2.6,2.8,4.3,2.1c1.7-0.7,4.7-2,4.7-2s1.9,0.5,3.7,1.2c1.9,0.7,1-0.5,3.1-0.3c2.1,0.2,0,0,1.6-1.8
	c1.6-1.8-0.3-3.6-0.3-3.6s1.9,0.5,2.5-0.8c0.6-1.4,3.9-4.9,3.9-4.9s2.3-0.5,2.7-3.8c0.5-3.3,0,0,1.2-0.4c1.2-0.4,6.8-2.1,6.8-2.1
	s0.9-1.7,2.3-2.8c1.4-1.1-0.7-1.6-0.2-2.6c0.4-1,1.7,2.2,1.7,2.2l2.1,3.2l4.4-5.6l5.2,5.6c0,0,2.8,2.1,4.1,2.1
	c1.3-0.1,2.1,0.2,2.1,0.2l2,2.2l5.1,1.8l2.2,1.3l1.3,0.6c0,0,5.7,0.3,6.5,0.2c0.8,0,1.9,0.5,4.6-3.1l2.9-1.7l0.1,1.5l2.8-0.7
	c0,0,0,0,1.1-2.1c1.1-2.1,1.7-1.1,1.7-1.1l2.1,0.9l3.9,3.4l0.3,3.6c0,0,3,2.1,5.6,2.6c0,0,1.8-0.4,2.7-1.8c0.9-1.4,4.6-0.3,4.6-0.3
	l1.3-2.4l2.5-6.1c0,0,2-0.1,2.1-2.1c0.1-2-0.3-3.6-0.5-5.6c-0.2-2,3.6-3.2,3.6-3.2l2.3-0.1l1.3-2.7l3.1-0.2l2-0.1
	c0,0,5.3-0.8,7.4-3.5c2.1-2.6,3.3-2.2,6-6.1c2.7-3.9,2.2-0.9,6.7-10.6c4.5-9.7,2.3-4.1,5.5-7.8c3.1-3.7,1.9-4.6,1.9-4.6s0,0,2.1-2.1
	c2.1-2.1,5.7-0.9,5.7-0.9l3.3,1.8l4.9,2.7c0,0,4.7,0.7,5.8,0.6c1.2-0.1,6.5-0.4,6.5-0.4s3.1-0.2,6.2-3.4c3.2-3.2,2.9-1.7,4.6-4.8
	c1.6-3.1,3.9-4.2,3.9-4.2l4.2-0.3c0,0,2.7,0.3,9.1-6c6.4-6.4,3-1.2,3-1.2l4.3,0.7c0,0,2.3-0.1,6.9-4.9c4.6-4.8,3.4-0.7,3.4-0.7
	l3.3,2.8l15.1,4.5l10.1-3.1c0,0,3.1,0.3,5.7-1.4c2.5-1.7,3.8-5.2,3.8-5.2l6.4,2.6l3.5-0.2c0,0,4.4-2.8,6.2-3.9
	c1.8-1.1,6.9,3.5,6.9,3.5s3.6,1.7,5.2,2.1c1.6,0.4,4.6-0.8,4.6-0.8s9.4-3.1,10.5-3.6c1.1-0.6,3.2,0.8,3.2,0.8s3.1-0.2,8.3-6l4.6-0.3
	l5.3,2.6c0,0,8,3.4,9.9,2.8c1.9-0.6,4.8-2.3,4.8-2.3l4.2-0.3l3.2-2.7l6.1-0.4c0,0,2.7-4.1,4.1-6.2c1.4-2.1,5.7,3.6,5.7,3.6l5.8-3.8
	l5.8,0.6c0,0,0,0,2.6,2.8c2.6,2.8,7.5-2,7.5-2s3.7,2.7,4.7,0.7c1-2,11.1-4.7,12.2-6.2c1-1.6,3.9-3.7,3.9-3.7s1.7-2.1,3.8-4.7
	c2.1-2.6,0,0,2.7,0.3c2.7,0.3,4.2-0.3,5.3-1.3c1.1-1.1,3.9-4.2,3.9-4.2l1.9-0.6c0,0,3.2,1.3,5.1,1.2c1.9-0.1,6.9-0.9,7.3-4.9
	c0.4-4,2-3.6,2-3.6l2.7,0.3l6.4-1.9l3.9,0.7c0,0,3,5,8.1,2.2c5.1-2.8,3,0.8,4.2-0.3c1.3-1.1,5.2,1.9,6,1.8c0.8,0,6.4,4.1,6.4,4.1
	s2.2,1.3,6.1-0.4c3.9-1.7,2.6-0.7,3.4-0.7c0.8,0,2.2,1.1,2.2,1.1l7-3.9l4.1,4.2c0,0,2.8,1.3,3.4,1.3c0.6,0,1.6,0.4,1.6,0.4
	s3.5,2.7,4.2,3.2c0.6,0.5,1.7,3.4,1.7,3.4s3.5,6.2,3.9,6.9c0.5,0.7,2.2,2.8,2.2,2.8s3.4,1.3,4.7,1.2c1.3-0.1,1.4,0.4,2.5,0.3
	c1.2-0.1,2.5,1.6,4.5,0.7c2-0.9,2.5-1.7,2.5-1.7s1.7,1.6,6.3-0.7c4.6-2.3,1.7,0.1,1.7,0.1l2.9,1.8l1.8,1.1c0,0,1.9,2.1,2.6,2.6
	c0.6,0.5,4.8,3.4,6.3,1.1c1.5-2.3,3.4,0.8,3.4,0.8l4.2,1.5l0.3,3.4l2.9,2.5c0,0,1.7,1.9,2.3,1.6c0.6-0.3,1.1,0.9,1.1,0.9l2.5,3.8
	l1.5,1.4c0,0,0.9,1.2,2.6,1.1c1.7-0.1,3.5,0.5,3.5,0.5s2.2,0.6,4-0.8c1.8-1.4,4.4,1.2,4.4,1.2s1.2-0.1,2.4-1.6
	c1.2-1.6,2.1-0.6,2.1-0.6l3.1,2.3c0,0,1.4,0.2,2.8-0.7c1.5-0.8,1-1.3,1-1.3s2.4,1.3,3.5,2s2.2,0.6,2.2,0.6l3,1.5l1-0.1
	c0,0,5.3-0.8,5.9-1.1c0.6-0.3,1,0.4,1.9-0.1c0.9-0.6,4.3-1.5,4.3-1.5l2.2-0.9c0,0,3.1-1.4,3.9-1.5c0.8,0,1.3,3.1,1.3,3.1l4.1,0.2
	c0,0,0,0,1.6-1.1c1.6-1.1,2.8,0.6,2.8,0.6l4.6,1.7c0,0,1.9-0.4,2.6-1.4c0.7-1,2.5-0.4,2.5-0.4s1.4,2.1,2,2.8
	c0.6,0.7,5.3,1.1,5.3,1.1s2.1-0.1,2.9-1.7c0.8-1.5,1.4-1.6,1.4-1.6s5-0.1,6.6-1.5c1.5-1.4,3-1,3-1s2-0.5,2.9-1.2
	c0.8-0.7,1.8-1.9,1.8-1.9s2.1-2.8,3.7-3c1.6-0.3,0.9,1.1,0.9,1.1s0,0,1.4-0.4c1.4-0.4,3.2-1,3.2-1l3.8,0.6l7.2,0l1.3-0.7
	c0,0,2.7-0.5,4-1.7c1.3-1.2,6.1,0.4,6.1,0.4l4.4,1.5l3.3-0.1c0,0,1.5-1.4,2.5-2.5c0.9-1.1,2.1-1,3-2.2c0.9-1.2,2.9-1.5,3.6-2.7
	c0.7-1.2,2.1-1.3,2.6-1.5c0.5-0.2,2.5,1.7,2.5,1.7l3.1-0.9l2.4-3.1c0,0,1.7,1.2,2.1,1.4c0.4,0.1,1.6,0.6,1.6,0.6l3-0.7
	c0,0,1.7,0.7,2.7,0c1-0.7,1.1-0.9,1.1-0.9l2.1-0.6l1.5,2.2c0,0,1.8,1.2,3.6,1.1c1.8-0.1,1.5,1.2,2.3,1.3c0.8,0.1,2.3,0.7,2.3,0.7
	l2.4,4l7.8,3.3l2.5-0.6c0,0,2.6,0.8,3.5-0.2c0.9-1,3.6-2.5,3.6-2.5l6.5-0.4c0,0,3.1,2,4.6,1.9c1.5-0.1,3.4-1.2,3.4-1.2l3.6-3.2
	l7.1,3.5c0,0,5.2-2.1,6-2.1c0.8,0,2.8-1.2,2.8-1.2l2.1-0.1l0.8-1.3l1.8-3.3c0,0,3.1,1.8,3.4,1.8c0.4,0,1.9-0.1,1.9-0.1l3.5-0.2
	l1.2-0.1l2.3-0.1c0,0,0,0,0.7-0.3c0.7-0.3,2.3,0.3,4-0.3l9.4-7.1c0,0,8.6-0.1,8.4-0.5c-0.2-0.5,1.4-1.7,2-2.4
	c0.6-0.6,2.8-2.2,2.8-2.2s1.5,0.9,2.4,0.7c0.9-0.2,1.3,0.4,2.6,0.7c1.3,0.2,1.2,0.6,1.9-0.1c0.7-0.7,2-1,2.7-1.7
	c0.7-0.7,2-0.9,2-0.9l2.2-1.2l0.8,0.1c0,0,1.3-0.9,1.7-1.4c0.3-0.5,0.4,1.1,1.2,2c0.8,0.8,3.4-3.2,3.8-4.3c0.4-1-0.1-1.1-0.1-1.1
	l0.6-1.9l1.3,2.4c0,0,2.7,1.3,3.1,1.3c0.4,0,2.6,1.5,3.2,1.6c0.7,0.1,2.9,1,2.9,1l3.7-0.5c0,0,4.3,0.2,4.6-0.3
	c0.3-0.5,1.6-1.1,1.8-1.6c0.2-0.5,1.6-0.8,1.9-1.9c0.3-1.2,2.5-1,2.7-1.8c0.2-0.8,1-1.7,1-1.7l1.4-1.9l1.2-0.1l2.3-0.1l0.5-1
	l2.3-1.5l5-1.2c0,0,1-0.4,1.2-0.9c0.2-0.5,0.7,0.1,0.9-1.1c0.3-1.2,1.8-0.1,1.8-0.1l2.6-0.2l0.7-1.9l0.7-1.2c0,0,1.3-0.7,1.9-2.1
	c0.5-1.4,3.1,0.1,3.5-0.2c0.4-0.4,1.6-0.6,1.6-0.6l1.4-2.1l0.7-2.4c0,0,1.7,0.5,2.3-0.1c0.6-0.7,0.9,0.4,2-1.8
	c1.1-2.2,1.8-1.9,1.8-1.9s1.3-0.1,1.4-1.9c0.1-1.8,0.7-1.9,0.6-3c-0.1-1.1,2.9-2,2.9-2l4.1-1.8l1.5-1.7l1.9-1.4c0,0,1.3-2.6,1.3-3.8
	c0-1.2,3.6-2.5,3.6-2.5l3.2-1.9l0.8,0l0.5-1.8l1.4,0.7l3.5,1.8l2.6,1.2c0,0,1.7,1.2,2.2,1.3c0.5,0.1,1.4-0.1,1.4-0.1l2-1l1.5,0.7
	c0,0,0.7-0.7,1.5-1.9c0.8-1.2,1.4,1.1,2.1,0.4c0.7-0.7,1.3-0.1,1.3-0.1l1.9,1.2c0,0,1.4-1.1,2-2.4c0.6-1.4,1.6-2.1,1.6-2.1
	s1.9-0.6,1.8-1.1c0-0.5,1.4-2.5,1.4-2.5l0.6-0.9l-0.2-2.1l-0.1-0.8l1.6,0.6l1.5-0.1c0,0,1.2,0.1,1.5-0.1c0.4-0.2,1-0.2,1.3-0.9
	c0.3-0.7,0.6-1.4,0.6-1.4l1.1-0.2c0,0,1.5,0.7,2.5,0.2c1-0.6,1.2-0.1,1.2-0.1l1.9-0.6l0.9-1.1l1.9-0.1l0.7,0.5c0,0,0.8,0.6,1.8-0.1
	c1-0.7,1.5-2.1,1.5-2.1s1.8-2.8,2.2-3.1c0.4-0.4,1.8,0,2.5-0.5c0.7-0.5,0.7-0.4,1.5-0.8c0.7-0.4,0.7,0.5,1.1,0.4
	c0.4,0,1.1-1.9,1.8-3.3c0.6-1.4,1.5-1.6,1.5-1.6l0.8,0.6l2.7,1.3l3.2,1.1l0.8-0.7c0,0,0.7-1.9,0.8-2.4c0.1-0.5,0.8-1,0.8-1l2,0.9
	l1.8-1.4l1.4,1.9l1.1,0.1l1.8,0.9l1.1,1.9l1.7,1.7l0.9,0.1l1.9-2.6l1-0.6l0.8,0c0,0,2.1-1.3,2.4-1.6c0.4-0.4,0.9-0.2,0.9-0.2
	l-0.1-1.1l2,0.9l0.1,1.3c0,0,1.3-0.7,1.5-1.6c0.2-0.8,0.9-0.2,1.1-1.1c0.2-0.8,0,0-0.4-1.1c-0.4-1.1-0.1-0.8-0.1-0.8l-0.1-1.5l2,0.9
	c0,0,1.1-0.7,1.7-1.1c0.6-0.4,0.9-0.2,1.3-0.9c0.5-0.7-0.2-2.3-0.2-2.3s0.6-0.4,1.1-0.4c0.5,0,1.2,0.9,1.2,0.9s1.6-0.3,2-0.3
	c0.4,0,0.9-0.1,0.9-0.1l2.4-2.1l1.2-2.1l1.1-0.9l1,0.1l1.5-0.4c0,0,1.7,1.7,2.3,1.7c0.6,0,1.9-0.3,1.9-0.3l1.1,0.6c0,0,0,0,1-0.7
	c1-0.7,0,0,1.2-0.9c1.2-0.9,3-2.3,3-2.3l1.6-1.9l1.3-0.1l1.5,0.6l0.2,1.6c0,0,3.3-0.9,4-0.9c0.8,0,1.5,1.1,1.5,1.1l0.7-0.4l0.7-1.9
	l0.7,0.6l1.4,1.2l1.5-0.1c0,0,0.8-0.2,1.9-1.4c1.2-1.2,1.3-1.6,1.3-1.6s1.6-2.1,1.8-3.1l2.2-1.5l1.5,1.4c0,0,0.6,1,1,1.1
	c0.4,0.1,2-0.3,2-0.3s1-0.6,1.1-1.6c0.2-1-0.1-1.1-0.2-2c-0.1-0.8,0.6-0.2,0.6-0.2l1.5,2.2l1.5,1.2l1.3,1.2c0,0,3.4-0.6,4-0.9
	c0.6-0.4,1.2-0.6,1.2-0.6l1.2,1.4l1.1,2.4l0.3,3.4l4.4,2.7c0,0,1-0.1,1.5-0.4c0.5-0.4,0.8-0.7,0.8-0.7l2.9,2.3l6.1,2.8
	c0,0,2.8,0.8,3.3,0.5c0.6-0.3,3.2,1.3,3.2,1.3l3,1.5c0,0,4,1.5,5.5,1.1c1.5-0.3,1.4-1.1,1.9-1.4c0.4-0.3,2.3,0.6,2.3,0.6l2.2,1.3
	c0,0,0,0,1.8-1.4c1.8-1.4,3.4,0.8,3.4,0.8s1.7-0.1,3.2-2.4c1.5-2.3,2.4-2.9,2.4-2.9s0.9-0.8,1.6-1.3c0.7-0.5,1.5-1.6,1.5-1.6
	s2.5,1.3,3.1,1.8c0.6,0.5,1.2,0.2,2.7-0.4c1.5-0.6,2.3-0.1,2.8-0.7c0.5-0.5,2.5,0.3,2.5,0.3s3.1,1,4.1,1.2c1,0.2,2.9,2,2.9,2
	l2.1-0.6l0.8,0.2c0,0,0,0,1,0.7c1,0.7,1.2,0.9,3.3-1.5l1.8,0.6l2.1,2.1c0,0,2.5,4.1,3.1,4.8c0.6,0.7,1.6,2.1,1.6,2.1l2.5,2.1
	l1.3,1.2l2.7-0.2c0,0,2.1-2.4,2.4-3.6c0.3-1.3,1-0.1,1-0.1s0,0,1.6-1.6c1.6-1.6,1.3-2.3,1.3-2.3l1.7-0.1l2.6,1.3l2.2,1.3
	c0,0,4.8,1.8,5.6,1.2c0.8-0.6,0.9-0.1,0.9-0.1s0.9,0.6,1.6,0.2c0.6-0.4,1,0,1,0l0.8-0.1c0,0,0.4-0.3,0.4-1.6c0-1.2,0,0,0.3-0.3
	c0.3-0.3,1.1-0.6,1.2-0.9c0.1-0.3,0.3-0.4,0.3-0.4l1.3,1c0,0,1.3,0.2,1.5-0.1c0.2-0.3,1.2-0.9,1.2-0.9s0.1-0.5,0.2-0.6
	c0.1-0.1,1.8-0.3,2.3-0.7c0.5-0.3,1.2,0.4,1.5,0.4c0.3,0,0.2,0.1,1.3-0.3c1.2-0.4-0.2-1.2-0.2-1.7c0-0.5,1.4-1,1.4-1l0.8-1.4
	c0,0,0.1-1.1,0.2-1.3c0.1-0.2,0.7,0.3,0.7,0.3s4.9,2,5.3,1.8c0.4-0.3,1.7-0.2,2.1-0.5c0.5-0.3,1.8,0.8,1.8,0.8l2.3,0.5
	c0,0,3.3-0.9,4.2-1.9s0.8-1,0.8-1s1,1.2,1.3,2c0.4,0.7,2.2,0.6,2.9-0.7c0.7-1.3,0.6-0.3,1.6-1.2c1-0.9,1.2-0.1,1.2-0.1
	s3.3,0.6,3.6-0.2c0.3-0.8,1.4-0.3,4.8-1.8c2.7-1.2,1.9-0.9,1.5-0.8c-0.1,0-0.2,0.1-0.2,0.1s0.1,0,0.2-0.1c0.8-0.3,4.1-1.6,4.4-2.5
	c0,0,0.3,0,0.6-0.4c0.4-0.3,0.6-0.2,0.8-0.7c0.2-0.4,0.2-0.7,0.2-0.7l0.2-0.4l0.3-0.4l0.2-0.2l0.3,0.5c0,0,0.2,0.7,0.3,1
	s0.3,0.4,0.5,0.6c0.3,0.2,0,0.6,0.1,0.8c0.1,0.2,0.4,0.3,0.7,0.4s0.2,0.1,0.5,0c0.3-0.1,0.7-0.1,0.7-0.1s0.4,0.1,1-0.1
	c0.5-0.2,0.2-0.4,0.7-0.7c0.5-0.3,0.5-0.6,0.5-0.6s0.6-0.5,0.9-0.9c0.3-0.4,0.6-0.5,0.6-0.5l0.8-1.6c0,0,0.1-0.6,0.3-0.9
	c0.2-0.3,0.9-0.7,0.9-0.7s0.2-0.3,0.3-0.7c0.1-0.4,0.8,0,0.8,0s0.4,0,0.6,0c0.2,0,0.6,0,0.6,0l0.2-0.7c0,0-0.1-0.9-0.1-1.2
	c0-0.3,0.1-0.3,0.2-0.6c0.1-0.3-0.1-0.7-0.1-0.7l0.8-0.7c0,0,1-0.1,1.5,0c0.5,0,0.8,0,1-0.3c0.3-0.3,1.1-0.6,1.1-0.6
	s0.6-0.5,0.8-0.7c0.1-0.2,0.7,0.6,0.7,0.6s0.5,0.8,0.8,0.8c0.3-0.1,1,0.1,1,0.1l1.2,0.9l1,0.2l0.5-1c0,0,0.5-0.8,0.9-1.4
	c0.4-0.6,0.5-0.6,0.9-0.5c0.4,0.1,1.2-0.5,1.2-0.5l0.4-1c0,0,0.5-0.6,0.7-0.9c0.2-0.3,0.3,0.1,0.4,0c0.1-0.1,0.5,0.2,0.5,0.2
	l0.5,0.4l0.9,0.6c0,0,0.3,0,0.7-0.4c0.3-0.4,0.8-0.9,0.9-1.3c0.2-0.4,1-0.1,1-0.1l0.6-0.1l0.7-1.3c0,0,0.3-0.9,0.3-1.6
	c0.1-0.7,0.4,0.2,1.3-0.9c0.9-1.1,0.8-1.5,0.7-2c-0.1-0.5-0.3-0.9-0.1-1.2c0.2-0.3,1.7,1.1,1.9,1.2c0.2,0.2,0.8,0.7,1.1,0.9
	c0.3,0.2,0.7,0.5,0.7,0.5s0.3,0,1.3-1.4c0.3-0.5,0.5-0.7,0.5-0.7c0,0,0,0,0,0c0.1-0.6,0.6-1,0.5-1.8c-0.1-0.8,0-0.8,0.1-1.6
	s0,0,0.2-0.3c0.2-0.3,0.6-0.3,0.8-0.2c0.2,0.1,0.7,1.6,0.9,1.9c0.2,0.4,0.8,1.6,1,1.8c0.2,0.2,0.9,1.4,1.4,1.8s0.3,0.4,0.3,0.4
	s0.7,1.5,0.9,1.7c0.2,0.2,0.7,0.9,0.7,0.9l0.8,1.1l0.8-0.4c0,0,0.1-0.4,0.1-1.1c0-0.6,0.3-0.6,0.5-0.6c0.1,0,0.4,0.4,0.4,0.4
	l1.3,1.8l0.8,0.3c0,0,0.5-0.3,0.7-0.5s0.9-0.6,0.9-0.6l0-0.4l0.6-0.8l0.8,1.6l1.4,0.4c0,0,1.1,1.7,1.3,1.8c0.2,0.2,0.5,0.5,0.5,0.5
	s0.9,0.1,1.1,0c0.1-0.1,1.3,0,1.7-0.2c0.4-0.2,0.4,0.5,0.5,0.8c0.1,0.3,0.5,1.2,0.6,1.4c0.1,0.2,1.5,2,1.7,2c0.2,0,1.5-0.1,1.5-0.1
	s0,0,0-0.3c0-0.3,1.2-0.5,1.6-0.8c0.4-0.4,0.9,0.3,1.3-0.1c0.4-0.4,1-0.1,1-0.1l0.7-1.1c0,0,1.5,0.5,1.7,0.5c0.2,0,0.7,0.4,0.7,0.4
	s1.2-0.2,1.4-0.8c0.2-0.5,0-0.4,0-0.4l0.9-0.6l1.2-0.4l1.8-0.9l0.9-1.4c0,0,0.7,0.1,1-0.1c0.2-0.3,0.4-1.5,0.4-2.1
	c0.1-0.6,1.2-0.4,1.4-0.7c0.2-0.3,1.3-0.9,1.3-0.9l-0.2-1.6c0,0,0.6-0.9,0.6-1.2c0-0.2-0.1-1.1-0.1-1.1l0.5-0.7c0,0,0.3-0.9,0.4-1.5
	c0.1-0.6,0.7-1.1,0.7-1.1l0.7,2.3l2.4,1.2l0.4,0.6l1.8-0.3c0,0,0.6,0,1.3-0.3c0.7-0.3,1.6,1.1,1.6,1.1l0.9,0.8c0,0,1-0.7,1.2-1.6
	c0.2-0.9,0,0,1.3-1.1c1.3-1.1,1.1-0.2,1.1-0.2s0.3-0.6,0.4-0.9c0-0.3,1.2-0.9,1.2-0.9s0.2-0.1,0.8-0.9c0.5-0.8,0.6,0.6,0.6,0.6
	l1.1,2.3c0,0,0.1,0.5,0.1,0.8c0,0.3,0.8,2,1,2.5c0.2,0.5,0.6,1.1,0.6,1.1s0.5,0.8,0.7,0.9c0.2,0.2,1.2,1.4,1.2,1.4l0.8-0.2
	c0,0,0.8-0.6,1.3-1.2c0.5-0.6,0.1,1.5,0.2,2.3c0.1,0.8,0.9,1,1.2,0.8c0.3-0.2,2.1-0.5,2.1-0.5s1.2,0.6,1.6,0.5
	c0.4-0.1,0.4-0.3,0.5-0.6c0.2-0.3-0.1-0.8-0.1-1.6c-0.1-0.7,0.1-0.5,0.2-0.8c0.1-0.3,0.6-0.9,0.7-1.9c0.2-1,0,0,0.1-0.3
	c0.1-0.3,0.9-0.3,1.4-1.1c0.4-0.8,0,0,0.4-0.7c0.4-0.7,0,0,0.3-0.7c0,0,0.6,0,1.1-0.7c0.5-0.7,0.4-0.4,0.4-0.4l0.4-1l1.2-0.1
	c0,0,0.3,0.1,1.2-1.2c0.9-1.3,0,0,0.2-0.7c0.2-0.7,0.6-0.1,0.9-1c0.3-0.9,0,0,0.2-0.3c0.2-0.3-0.1-0.6-0.1-0.6l0.5,0.2l0.7,0.5
	l-0.2,1.4l0.7,0.6c0,0,0.9,1.1,1.2,0.8c0.2-0.3,0.3,0.1,0.5,0c0.2-0.2,0.6-0.5,0.6-0.5l0.3-0.3l0.2-1c0,0-0.1-0.9-0.1-1.3
	s0.4,0.1,0.4,0.1l0.6,0.4l1.3,0.2c0,0-0.7-1-0.2-1.6l0.6-0.8c0,0,0.5-0.4,0.9-0.4c0.4,0,0.8,0.9,0.8,0.9l1-0.2l0.6-1.2l1.3,0.8
	c0,0,0.5,0.6,1.4,0.7c0.9,0.1,0.8,0.6,1.1,0.8c0.3,0.2,1.5,0.6,1.5,0.6s1,0.4,1.7,0c0.7-0.4,0.6-0.7,0.6-0.7l-0.3-3.1l-0.1-1.6
	l-0.1-1.6l-0.1-1c0,0,0.8-2.2,1-2.5c0.3-0.4,1.2,0.8,1.2,0.8s0.9,0.8,2.5,1.2c1.6,0.4,2.7-0.2,3.6-0.4c0.9-0.2,1.9,0.3,1.9,0.3
	l1.8,1.1c0,0,1.1,0.9,2.2-1.1c0,0,2.4,1.7,2.9,2.1c0.5,0.4,1.3,0.6,1.3,0.6l1.9,0.1l0.9-0.2c0,0,0.1-0.9,0.3-1.5
	c0.2-0.6,0.5,0.1,0.5,0.1s2.3,0.5,3.3,0.3c1-0.2,0.9-0.2,0.9-0.2s1.1-0.4,1.7-0.6c0.6-0.2,1.8,0.1,2.5,0c0.7-0.2,0,0,0.3-1.1
	c0.3-1.1,0.6-0.7,0.9-1.2c0.2-0.5,0.6,0,0.6,0l0.8-0.8l0.6-1.3c0,0,0.4-1.1,0.7-2l1,1.1l1.6-0.1l-0.1-1.5l1.6,1l0.5-1.4l1,1.1l0.6,0
	l0.3-2l0.8-0.4l0.9,2.5l1.7,0.5l2.3,0.8l1,0.4c0,0,1.1,0.4,2.5,0.1c0.8-0.2,0.9-0.3,0.8-0.4l-0.2-0.1c0,0,0.1,0,0.2,0.1l0.4,0.2
	l1.7,0.5c0,0,0,0,0.3-0.6c0.3-0.6,0.7-0.2,0.8-0.5c0.1-0.3,0-1.1,0.1-1.5c0.1-0.4,0.9,0.2,0.9,0.2l1.7-0.9l0.4-0.7l1.4,0.8l0.6-0.7
	l-0.1-1l-0.1-1.2c0,0,2.2,1.3,2.9,1.1c0.7-0.3,0.9-0.1,1.1-0.3c0.2-0.2,1.1,0.6,1.1,0.6l0.6-0.1l0.5-1.8l0.6,0.7
	c0,0,0.4,0.1,0.7,0.1c0.3,0,1.1,0.5,1.1,0.5s0.9-0.7,1.2-1.2c0.3-0.4,0.7,0.5,0.7,0.5l0.4,0.2c0,0,0.5,0.2,0.8-0.4
	c0.3-0.6,0.7-0.5,0.8-0.8c0.2-0.3,0.2-0.9,0.2-0.9s1,0.1,1.4,0c0.4-0.1,0.4,0.6,0.4,0.6s1.2,0,1.4-0.4c0.2-0.4,0.2-0.2,0.3-1.2
	c0.1-1,0.9-1.1,0.9-1.1l0.5-0.4l0-0.9l-1.8-1.6l2.9,0.6l1.6-0.3c0,0,0.3-0.3,0.5-0.3c0.2,0,0.3,0.1,0.5-1.4c0.1-0.5,0.1-0.8,0.1-0.9
	l-0.1,0c0,0,0.1-0.2,0.1,0l1.1-0.4c0,0,1-0.5,1.2-1.1c0.2-0.7,0.4-0.5,0.4-0.5s0.2-0.5,0.3-1.4c0.1-0.9,1.2-1,1.2-1s0-0.3-0.1-1
	c-0.1-0.7,0-0.3,0.4-1c0.3-0.7,0.2,0.1,0.4-0.2c0.2-0.3,1,0.3,1.4-0.2c0.4-0.5,0.7,0,1.2-1c0.5-0.9,0.9-1,0.9-1l0.3-1.6
	c0,0,0.1-0.6,0.5-1.8c0.3-1.2,0.8-1.4,0.8-2c0.1-0.6,0.4-0.9,0.4-0.9l0.7-0.5l0.6-1.4c0,0,0,0-0.2-0.8c-0.2-0.8-0.1-0.7-0.1-0.7
	l2-0.1c0,0,0.9,0,1.2-0.1c0.3-0.1,1.2,0.2,1.2,0.2l1.5-0.7l-0.1-0.8l1.6-0.5l1.2,0.8l0.4,0.3c0,0,1.9,0.6,2.1,0.5
	c0.3-0.1,1.3,0.4,1.3,0.4l1-1.1l1.5,0.9l1.2,0.4c0,0,1.8,0.3,1.9-0.1c0.2-0.4,0.5,0,0.5,0l1.5,1.1l1.6-0.2l1,0.2
	c0,0,1.4-0.7,1.3-1.4c-0.1-0.7,0-0.9,0.1-1.3c0.2-0.4,0,0,0.3-0.5c0.3-0.5,0.2-0.9,0.2-0.9s-2.1-1.8-3.1-2.7c-1-0.8,0.3,0.2,0.9,0.3
	c0.6,0,1.1-0.1,1.9-0.5c0.8-0.4,0.6-0.2,1.1-0.7c0.5-0.5,0.6-0.1,0.6-0.1s0,0,0.5-0.8c0.5-0.8,0-0.7,0-0.7s1-1.2,1.1-1.7
	c0.1-0.5,0.7,0.7,1,1.1c0.3,0.4,0.4,0,0.4,0s0.8,0.5,1.1,0.4c0.3-0.1,0.5,0,1.1-0.2c0.6-0.2,0.8,0.8,0.8,0.8s0,0,0.6-0.3
	s0.6,0,0.7-0.6c0.1-0.6,0.2-0.7,0.5-1.4c0.3-0.7,0.5,0.9,0.5,0.9l1.6,1c0,0,1.2,0.8,1.5,0.5l2.3-1c0,0,0,0-0.1-0.9
	c-0.1-0.9,0.7-0.6,0.7-0.6l0.6,0.5l0.9,0.3l0.6-0.4l0.8-0.6c0,0,0.7,0.1,0.9,0c0.2-0.1,1.5,0.3,1.5,0.3l0.6,0.7l0.9,0l0.9,0.1
	c0,0,0.7-0.4,1.1-1c0.5-0.7,0.8-0.1,0.8-0.1l0.2-0.9l1.2,0l0.4,0l1.8-0.2l0.6-1.6l0.5,0c0,0,0.8,0.5,1.4-0.4c0.7-1,1-1,1-1
	s0.9-0.6,1.1-1c0.2-0.3,0.4,0.3,0.4,0.3l1.3,0.6l0.3-0.4c0,0,0.3-0.8,0.5-1.1c0.3-0.3,1.4,1.4,1.4,1.4l0.5,0.3l0.9,0.4l0.4-0.3
	c0,0,0.7-0.6,0.9-0.7c0.2-0.1,0.6,0,0.6,0s1.2,1.1,1.5,1.4c0.3,0.3,1.2,0,1.5-0.4c0.3-0.4,1-0.7,1-0.7l0.5-2.3c0,0-0.1-0.8-0.1-1.5
	c0-0.7,0.2-1,0.2-1s0.7,0.9,1.1,1.1c0.3,0.2,0.4,0,0.7-0.5c0.3-0.4-0.1-0.6-0.1-0.6s0.5-0.4,0.9-0.9c0.3-0.4,0.4-1.5,0.4-1.5
	l2.1,0.3l0.6-0.1l0.6-2.8c0,0,0.5-2.1,0.5-2.2c0-0.2,0,0,0.1-0.1c0.1-0.1,0.2-0.2,0.1-0.9c-0.1-0.7-0.6-1.1-0.6-1.1s0.6-0.3,0.4-1.4
	c-0.2-1.1-0.1-0.6-0.1-1c0-0.4,0.3-1.5,0.3-1.5l0.5-0.1l0.1-0.8l-0.1-0.7l0.9,0.3l0.5,0.7l0.9,0.2c0,0,0.3-0.2,0.3-0.6
	c0-0.5,0.7-1.2,0.7-1.2l0-0.6l0.2-1c0,0,0.5-0.2,0.6-0.2c0.1,0,0.2,0.4,0.2,0.4s0.4,1.7,0.5,2c0.1,0.3,0.8,0.9,0.8,0.9l0.8,0.4
	l0.5,0.2l0.8-0.4l0-0.5l1.6,0.3l0.3,0.5l1,1.2c0,0,0.1,0,0.2-0.2c0.1-0.2,0.6-0.2,0.6-0.2l0.7-0.6c0,0,0.3-0.3,0.4-0.5
	c0.1-0.3,0-0.5,0-0.5l0.5-0.6c0,0,0.5-0.7,0.5-0.9c0-0.2,0.1-0.3,0.1-0.6c0.1-0.3,0.4-0.1,0.4-0.1l0.8,0c0,0,0.6,0.3,0.8,0.2
	s0.6,0.1,0.6,0.1s0.3,0,0.4-0.3c0.2-0.3,0.6-0.2,0.7-0.3c0.2-0.1,0.5,0.6,0.7,0.5c0.2-0.1,0.9,0.5,0.9,0.5s0.9,0.8,1.1,0.8
	c0.1,0,0.8,0.6,1,0.6c0.1,0,0.3,0.2,0.5,0.1c0.2-0.1,1.1,0.5,1.2,0.6c0.1,0.1,0.7,0.2,0.7,0.2l0.4-0.2l0.4-0.5c0,0,0.1-0.2,0.2-0.7
	c0.1-0.5,0,0,0.1-0.4c0.1-0.4,0.2-0.3,0.2-0.3l0.9,0.3c0,0,0.2-0.1,0.3-0.3c0.1-0.3,0,0,0.3-0.4l0,0.5l1,0l0.2,0l0.7-0.7
	c0,0,0-0.2,0-0.4c0-0.2,0.7-0.5,0.7-0.5l0.4-0.2l0.4-0.4l0-0.8l0.3-0.4l0.4-0.3l0.2-0.1c0,0,0.3-0.2,0.4-0.4
	c0.1-0.1,0.2-0.1,0.4-0.5c0.3-0.5,0,0,0.1-0.3c0.1-0.3-0.1-0.3,0-0.4c0.1-0.1,0.7,0.2,0.7,0.2l0.3,0.4l0.3,0.4c0,0,0.3,0.3,0.7-0.1
	c0.4-0.4,0.1-0.3,0.1-0.7c0-0.3,0.5,0.1,0.7,0c0.2-0.1,0.9,0,0.9,0l0.8-0.3c0,0,0.3-0.1,0.5-0.4c0.2-0.3,0.7,0,0.9-0.1
	c0.2-0.1,0.7,0.1,0.7,0.1s0.4,0.3,0.5,0.3c0.1,0,0.4,0.3,0.4,0.4c0.1,0.1,0.9-0.4,0.9-0.4s0,0,0.1-0.3c0.1-0.3,0.4,0,0.5,0
	c0.1,0,0.3,0.1,0.3,0.1l1-0.8l0.4-0.2l0.4,0.5l1.1,0.2l0.4,0.2c0,0,0.2,0.6,0.4,0.4c0.2-0.2,1.1,0.5,1.1,0.5s0.4,0.1,0.5-0.1
	c0.1-0.2,1,0.1,1.2,0.1c0.2,0,0.3,0.3,0.3,0.3l1.1,0.2l0.6-0.2c0,0,0-0.2-0.2-0.6c-0.2-0.3,0.1-0.2,0.1-0.2s0.2,0.2,0.4,0.1
	c0.2-0.1,0.7,0.5,0.7,0.5s0.5,0.5,1,0.4s0,0.2,0,0.2s0.4,0.4,0.6,0.4c0.2,0,0.4,0.6,0.4,0.6s0,0.4,0,0.5c0,0.1,1.3,0.5,1.3,0.5
	s0.5-0.1,0.7-0.3c0.2-0.2-0.6-1.1-0.6-1.1s1-0.1,1.2-0.4c0.2-0.2,0.8-0.4,0.8-0.4l0.3-0.8l0.3-0.5l0.4,0.7c0,0,0.8,0.5,0.9,0.5
	c0.1,0,0.1,0.2,0.8,0.1c0.7,0,0.4-0.4,0.5-0.5c0.1-0.2,0.4,0.1,0.6,0c0.1,0,0.1,0.5,0.4,0.3c0.2-0.2,0.6,0.1,1-0.3
	c0.4-0.4,0.5-0.4,0.5-0.4l0.4-0.1l0.5,0.3l0.7,0l0.6-0.1l0.4,0c0,0,0.1-0.2,0.3-0.5c0.2-0.3,0.9,0,0.9,0s0.3,0.5,1.2,0.3
	c0.4-0.1,0.5-0.1,0.5-0.1l0.3-0.2l0.5-0.1l0-0.4c0,0-0.2-0.9-0.1-1c0.1-0.2,0.8-0.7,0.8-0.7s-0.1-0.4-0.1-0.6c0-0.2,0.6-0.3,0.6-0.3
	l0.7-0.5c0,0,0.1-0.5,0.3-0.6c0.1-0.1,0.2,0,0.2,0l0.4,0.4c0,0-0.2,1.1,0,1.2c0.1,0.1,0.1,0.7,0.1,0.7l0.6,0.4c0,0,0.7,0.6,0.8,0.7
	c0.1,0.1,0.3,0.4,0.3,0.4s1.2,0.4,1.4,0.5c0.3,0.1,0.2,0.2,0.2,0.2s0.8-0.1,1.1-0.5c0.3-0.4,0.6-0.8,0.6-0.8s0.5-0.2,0.7-0.6
	c0.2-0.4,0.1-0.3,0.1-0.5s0.1-0.5,0.1-0.9c0-0.4-0.7-1.6-0.7-1.6l-0.5-0.7c0,0,0.6-0.2,0.7-0.3c0.2-0.1,0.6,0.2,0.7,0.2
	c0.1,0,0.4,0.3,0.9-0.1c0.5-0.4,0,0,0.1-0.3c0.1-0.3,0.2-0.1,0.3-0.3s0.2,0.2,0.2,0.2s0.8,0.5,0.9,0.4c0.1,0,0.5,0,0.6-0.1
	c0.1-0.1,0.9-0.4,0.9-0.4s0,0,0.6-0.5c0.6-0.5,0.7-0.8,0.9-1.4c0.2-0.6-0.1-0.6-0.1-0.6s0.4-0.2,0.9-0.4c0.5-0.2,0.5-0.2,0.5-0.2
	l1-1.1l0.6-0.5c0,0-0.1-0.2-0.1-0.6c0-0.4,0,0,0.7-0.4c0.7-0.4,0.1,0.8,0.1,1.2c0,0.4,0.1,0.2,0.5,0c0.4-0.2,0.8,0.7,0.8,0.7
	l0.5-0.8l0.3-1.1l0.5-1c0,0,0-0.5,0.2-0.9c0.1-0.4,0.2-0.7,0.4-0.8c0.2-0.1,0.4,0.5,0.4,0.5l0.5,0.8l0.6,0.3c0,0,0,0,0.9-1.1
	c0.9-1.1,0.7,0.6,0.7,0.6l0.8,0.6c0,0,0.5,0.3,0.7,0.2c0.2-0.1,0.3-0.4,0.3-0.4l0.6-1c0,0,0.4,0.3,1,0.6c0.6,0.2,1,0.4,1,0.4
	s1.3,0.3,1.6,0c0.3-0.3,0.3,0,0.3,0l1.3-0.5c0,0,0.7-0.2,0.9-0.3c0.3-0.1,0.5,0.3,0.6,0.5c0.1,0.2,0.4,0.5,0.4,0.5s0.9,0.2,1,0.1
	c0.1-0.1,0.4,0.3,0.8,0.6l1.2-0.6l0.2-0.9l0.9-0.4l0.4-0.3l0.3-1.1l0.6-0.6l0.3,1c0,0,1.2,1.2,1.6,1.4c0.5,0.2,0.5,0.6,0.5,0.6
	l1.2,0.7l1,1.2l-0.1-0.9c0,0,0.6-0.5,0.8-0.5c0.1,0,1,0.2,1,0.2s0.5,0.1,0.6,0c0.1,0,0.3,0.4,0.8,0c0.5-0.4,0.1-0.4,0.1-0.6
	c0-0.2,0.1-0.2,0.2-0.5c0.1-0.3,0.2-0.4,0.3-0.6c0.1-0.2,0-0.5,0-0.5l0.3,0.1c0,0,0.4,0.4,0.5,0.4c0.2,0,0.1,0.5,0.1,0.5l0.4,0.5
	l0.4,0.2l0.3,0.2c0,0,0.2,0.2,0.6,0.2c0.4,0,0,0.3,0,0.3l0.4,0.2c0,0,0.2-0.3,0.2-0.6c0-0.2,0.3-0.5,0.3-0.5l0.3,0.3l0.2,0.3
	l0.6,0.5l0.5,0.4c0,0,0.1,0.2,0.3,0c0.2-0.2,0.3-0.1,0.6-0.1c0.4,0,0.4,0.2,0.4,0.2s0.6,0,0.9-0.1c0.3-0.1,0.2,0.2,0.2,0.2l0.3,0.3
	l0.5-0.2c0,0,0.3-0.4,0.4-0.6c0.1-0.2,0.6-0.4,0.6-0.4s-0.1-0.3,0-0.5c0-0.2,0.3,0.1,0.4,0.1c0.1,0,0.2,0.4,0.2,0.4s1.4,0.4,1.6,0.5
	c0.2,0.1,0.6-0.5,0.6-0.5s0.2-0.2,0.3-0.3c0.1-0.1,0.2-0.2,0.1-0.8c0-0.4,0-0.5,0-0.5c0,0,0.1-0.2,0.1-0.6c0-0.4,0.1-0.5,0.1-0.6
	c0-0.1,0.4,0.2,0.4,0.2l0.7,1.1l0.3,0.7l0.5,0.4l0.5,1c0,0,0.6,0.5,0.8,0.6c0.2,0.1,0,0.4,0,0.5c0,0.1,0.4,0.4,0.4,0.4
	s0.4,0.1,0.7-0.2c0.3-0.3,0.3-0.4,0.4-0.6c0.1-0.2,0.1-0.2,0.3-0.5c0.1-0.3,0.2-0.4,0.3-0.5c0.1-0.2,0.4-1.1,0.4-1.1l0.2-0.7
	c0,0,0.7-0.2,0.8-0.5c0.1-0.2,0.1-1.1,0.1-1.1l0-0.3l0.7-0.8l0-0.5l0.4-0.5l0.7,0.4c0,0,0.4,0.4,0.5,0.6c0.1,0.2,0.9,0.1,1.2,0
	c0,0,0.8,0,1-0.1c0.2-0.1,0,0.2,0,0.2l0.7,0.1c0,0,0.2,0.1,0.5-0.3c0.3-0.4,0.3-0.2,0.3-0.2l0.1,0.1l0.4,0.3l0.5,0.3
	c0,0,0.4-0.1,0.5-0.2c0.1-0.1,0.3-0.5,0.3-0.5l0.2-1.1c0,0,0.8,0,1,0.2c0.2,0.2,0.2,0.1,0.6,0.1c0.4-0.1,0.3,0.4,0.3,0.6
	c0.1,0.1,0.4,0.5,0.4,0.5l0.4,0.4l0.5-0.1c0,0,0.1,0,0.1-0.1c0-0.1,0.3-0.4,0.3-0.4l0.7-0.5c0,0,0-0.5,0-0.8c0-0.3,0.3,0,0.3,0
	s0.2,0.2,0.5,0.1c0.3-0.1,0.1-0.1,0.2-0.2s0.4,0.2,0.4,0.2s0.3,0.4,0.6,0.7c0.2,0.3,0.5,0.2,0.5,0.2l0.8,0l0.8-0.3
	c0,0,0.1-0.5,0-1.3c-0.1-0.8,0.2-0.6,0.3-0.7c0.1-0.1,0.3-0.1,0.3-0.1s0.8-0.2,0.9-0.3c0.2-0.2,0.4,0.1,0.4,0.1l0.9,0.2
	c0,0,0.2-0.1,0.5-0.4c0.3-0.3,0,0,0.2-0.3c0.2-0.3,0.9-0.1,1.1-0.6c0.2-0.4,0,0,0.1-0.5c0.1-0.5,0.9,0,1-0.1
	c0.1-0.1,0.4,0.9,0.4,0.9l0.1,0.6c0,0,0.5,0.7,1.1,0.2c0.6-0.5,0.5-0.1,0.5-0.1l0.4-0.4l0.7-0.6c0,0,0-0.2,0.1-0.5
	c0.1-0.3,0-0.4,0-0.4l1.2,0.3c0,0,0.2,1.5,0.2,1.7c0,0.2,0,0.9,0.1,1.2c0.1,0.4,0.1,0.8,0.1,0.8s0.4,0.5,0.8,0.7
	c0,0,0.9-0.8,1.1-1.1c0.2-0.3,0.6,0.1,0.6,0.1l0.3-0.2l0.3-0.5l0.9,0.7l1.4,0.5l0.6-0.6l1.2,1.1l0,0.4l1.8,1.3l0.5-0.4l0.8,2
	l0.1,1.2c0,0,0.7,1.5,0.7,1.8c0,0.3,0.2,1.7,0.2,2.1c0,0.3,1.7,1.5,1.7,1.5l0.5,1.5c0,0,0.8,1.8,0.9,2.4c0.1,0.6,1,1,1,1l1.5-0.7
	c0,0,0,0,0.3-0.7c0.3-0.7,0.8,1,0.8,1l0.9,1.2c0,0,1.1,1.6,1.3,1.3c0.2-0.3,0.7-0.4,0.7-0.4l0.4,1.3l0.8,0.3l0.4-1.3l1,0.6l0.7-0.5
	c0,0,0-0.9,0.1-1.4c0.2-0.4,0.4,0,0.4,0l0.5-1l0.8-1.6c0,0,0,0,0.2-1.4c0.2-1.4,0.9-1.2,0.9-1.2l0-0.4c0,0,1.2-0.6,1.2-0.8
	c0-0.2,0.3-1.2,0.3-1.2l0.2-0.9c0,0,1.1-0.2,1.2-0.6c0.1-0.4,0.4-1.6,0.6-2.1c0.1-0.5,0.5-0.4,0.5-0.4s0.7-0.2,1-0.8
	c0.3-0.6,0.1-1.3,0.1-1.3l0.5-1.6l1.3,0.7l0.7-0.4l1-0.3c0,0,0.2-0.8,0.2-1.5c0-0.7,0.7,0.1,0.8,0c0.2-0.1,0.5,0.4,1,0
	c0.5-0.4,0.9,0.9,0.9,0.9l0.6,0.8l1.1,0.9c0,0,0.3,0.4,0.7,0.2c0.1-0.1,0.2-0.1,0.3-0.1v-94.6V25.6L1917.1,25.8z"/>
</svg>
