<?xml version="1.0" encoding="utf-8"?>
<!-- Generator: Adobe Illustrator 25.2.1, SVG Export Plug-In . SVG Version: 6.00 Build 0)  -->
<svg version="1.1" id="Layer_1" xmlns="http://www.w3.org/2000/svg" xmlns:xlink="http://www.w3.org/1999/xlink" x="0px" y="0px"
	 viewBox="0 0 40 40" style="enable-background:new 0 0 40 40;" xml:space="preserve">
<style type="text/css">
	.st0{fill:none;}
	.st1{fill:#FFFFFF;}
</style>
<path class="st0" d="M7.6,8.4h24v24h-24V8.4z"/>
<path class="st1" d="M19.6,10.4c-5.5,0-10,4.5-10,10s4.5,10,10,10c5.5,0,10-4.5,10-10S25.2,10.4,19.6,10.4z M26.6,16.4h-2.9
	c-0.3-1.2-0.8-2.4-1.4-3.6C24.1,13.5,25.6,14.8,26.6,16.4z M19.6,12.4c0.8,1.2,1.5,2.5,1.9,4h-3.8C18.2,15,18.8,13.6,19.6,12.4z
	 M11.9,22.4c-0.2-0.6-0.3-1.3-0.3-2c0-0.7,0.1-1.4,0.3-2h3.4c-0.1,0.7-0.1,1.3-0.1,2s0.1,1.3,0.1,2H11.9z M12.7,24.4h2.9
	c0.3,1.2,0.8,2.5,1.4,3.6C15.2,27.3,13.7,26.1,12.7,24.4z M15.7,16.4h-3c1-1.7,2.5-2.9,4.3-3.6C16.5,14,16,15.2,15.7,16.4z
	 M19.6,28.4c-0.8-1.2-1.5-2.5-1.9-4h3.8C21.1,25.8,20.5,27.2,19.6,28.4z M22,22.4h-4.7c-0.1-0.7-0.2-1.3-0.2-2s0.1-1.4,0.2-2H22
	c0.1,0.6,0.2,1.3,0.2,2S22.1,21.7,22,22.4z M22.2,28c0.6-1.1,1.1-2.3,1.4-3.6h2.9C25.6,26.1,24.1,27.3,22.2,28z M24,22.4
	c0.1-0.7,0.1-1.3,0.1-2s-0.1-1.3-0.1-2h3.4c0.2,0.6,0.3,1.3,0.3,2s-0.1,1.4-0.3,2H24z"/>
</svg>
