<?xml version="1.0" encoding="utf-8"?>
<!-- Generator: Adobe Illustrator 25.2.1, SVG Export Plug-In . SVG Version: 6.00 Build 0)  -->
<svg version="1.1" id="Layer_1" xmlns="http://www.w3.org/2000/svg" xmlns:xlink="http://www.w3.org/1999/xlink" x="0px" y="0px"
	 viewBox="0 0 294 30" style="enable-background:new 0 0 294 30;" xml:space="preserve">
<style type="text/css">
	.st0{fill:#FAE605;}
</style>
<g>
	<path class="st0" d="M1.7,4.7c0,0,0.1-0.5,0.1-0.6S1.7,4.1,1.6,3.9S1.4,3.6,1.5,3.6c0,0,0.3-0.1,0.6-0.1c0.3,0,0.9,0,1,0
		c0.2,0,0.7,0,0.8,0.1c0.1,0,0.3,0.1,0.4,0.1c0.1,0,0.1,0,0.2,0s0.2,0,0.5,0c0.2,0.1,0.4,0.1,0.6,0.1c0.2,0.1,0.3,0.1,0.6,0.1
		s0.5,0,0.7,0c0.2,0,0.7,0.1,0.9,0.1c0.2,0,0.4,0.2,0.7,0.2c0.3,0,0.4,0,0.7,0c0.3,0,0.8,0.2,1,0.2c0.2,0,0.4,0,0.8,0
		c0.4,0.1,0.6,0.1,0.9,0.1s0.2-0.1,0.1-0.1c-0.1-0.1-0.1-0.1-0.1-0.1s0.5,0,0.8,0s1.4-0.2,1.8-0.3s0.3-0.2,0.5-0.2
		c0.2,0,1-0.3,1.1-0.4s0.1-0.1,0.5-0.2C16.8,3,17.3,3,17.8,3c0.5,0,1.2,0,1.3,0s0.4-0.1,0.5-0.1c0.2,0,0.8-0.1,1.1-0.1
		c0.4,0,0.7,0,1,0c0.3,0,0.8-0.1,0.8-0.1s2.7-0.2,5.4-0.2c2.7,0,4.5-0.1,4.5-0.1s3.4-0.2,3.7-0.2c0.2-0.1,2.3,0.1,2.7,0.1
		s3.7,0.1,4.5,0c0.8,0,1.5-0.3,1.9-0.3s2.3,0.2,2.4,0.2c0.1,0,2.2-0.1,2.7-0.1c0.5,0,1.4-0.1,1.8-0.1C52.5,2.1,61.2,2,62,2
		c0.8,0,6.3-0.1,7.9,0c1.5,0.1,10.6,0.2,11.5,0.2c0.9,0,19.6,0,21.3,0s5.1,0,5.9,0.1s9.3,0.1,12.6,0.1c3.3,0,10.2-0.2,10.2-0.2
		s15.2-0.4,16.7-0.5c1.5,0,18-0.3,18.5-0.4c0.5-0.1,4.4,0,5.4,0c1,0,6-0.3,7-0.3c0.9,0,5.4,0.1,6.2,0.1c0.8,0,5.2,0,6,0
		c0.7,0,4.3-0.2,7.4-0.1s6.8,0,7.5-0.1c0.7,0,3.9-0.3,8.8-0.1c0,0,4.8-0.1,6.5-0.1c1.6,0,4.1-0.1,5.2,0s2.9,0.4,3.6,0.3
		c0.7,0,0.3,0,1.4,0c1.2,0,2.4-0.1,3.3-0.2c0.9-0.1,2.9-0.2,3.5-0.1s1,0.1,1.4,0.1c0.4,0,0.9-0.1,1.5-0.3c0.6-0.2,2.2-0.2,3-0.2
		c0.8,0,3.8,0,5.2,0.1c1.4,0.1,1.7,0,2.2,0c0.6,0,1.1-0.1,1.5,0s7.6,0,8.2,0s5.2,0.2,6.3,0.2c1.1,0,3,0.1,3.7,0.1
		c0.7-0.1,1.2-0.1,1.2-0.1s2.5,0,2.7,0c0.2,0,2.2,0.1,2.2,0.1s15.4,0.7,15.9,0.7s0.7,0.1,0.7,0.1c0.1,0.1,0,0.9-0.1,1.1
		c-0.1,0.2-0.4,0.8-0.4,1.1c0,0.3,0,0.4,0.2,0.5s0.2,0.2,0.2,0.2s-0.3,0.8-0.2,1.2c0,0.3,0.1,1.5,0.1,1.6c-0.1,0.1-0.3,0.4-0.2,0.5
		c0.1,0.1,0.1,1.1,0.1,1.3c-0.1,0.2-0.2,0.8-0.2,0.9c0,0.1,0,0.4,0,0.6c0,0.2-0.6,1.5-0.7,1.7s-0.6,1.4-0.7,1.8s-0.6,2.1-0.7,2.5
		c-0.1,0.4-0.2,6.8-0.2,7.3s0.1,4.7,0,4.9c-0.1,0.2-0.1,0.7,0,0.9c0.1,0.2,0.2,0.3,0.1,0.4s-0.4,0.1-1.3,0c-0.9-0.1-1.5-0.1-2.2-0.2
		c-0.7,0-3.6-0.2-4.5-0.2c-0.8,0-11.8-0.6-12.2-0.7c-0.4,0-0.6,0-0.9,0c-0.3,0-0.2-0.1-0.7-0.1c-0.6,0-33.1-0.1-36.7-0.1
		c-3.6,0.1-121.2-0.1-129.6,0.2s-84.9,0.2-89.4,0.5c0,0-2.7,0-2.9,0c-0.2,0-1.7-0.1-2.2-0.1c-0.5,0-4-0.3-5-0.3
		c-1-0.1-2.4-0.3-2.6-0.3s-0.8-0.2-0.7-0.3s0.3-0.2,0.4-0.2C0.9,28,0.9,28,1,27.9c0.1-0.1,0.1-0.1,0.2-0.2c0.1-0.1,0.1-0.1,0.2-0.2
		c0.1-0.1,0-0.2,0.1-0.2s0.2,0,0.2-0.2c0-0.1-0.2-0.6-0.3-0.7c-0.1-0.1-0.1-0.3-0.1-0.3c0-0.1,0-0.9-0.2-1c-0.1-0.1-0.2-0.2-0.4-0.3
		s-0.3-0.1-0.4-0.3s-0.3-0.3-0.4-0.6c-0.1-0.3-0.2-1.2,0.3-1.7C0.8,21.6,0.7,21,0.7,21s-0.1-0.5,0.5-1c0.5-0.5,0-2.6,0.1-3.1
		s0.1-1.5,0-1.8c-0.1-0.3,0-0.9,0.1-1.2s0.2-0.5,0.1-0.7S1.1,12.7,1,12.4s-0.3-0.5-0.2-1s1-1.3,1-1.6c0-0.2,0-0.7-0.3-1.3
		C1.2,8.1,1,7.4,0.9,7.2S0.7,6.9,0.6,6.7S0.3,6.4,0.4,6.2s0.4-0.5,0.7-0.7c0.3-0.2,0.4-0.3,0.5-0.4S1.7,4.7,1.7,4.7z"/>
</g>
</svg>
